<svg id="Black_Outline_Layer" data-name="Black Outline Layer" xmlns="http://www.w3.org/2000/svg" viewBox="0 0 417.4 149.63"><defs><style>.cls-1{fill-rule:evenodd;}</style></defs><title>UTCrst_Stacked_Black-01</title><path id="University_of_Toronto_Mark_Stacked" data-name="University of Toronto Mark Stacked" d="M395.24,86.87A21.41,21.41,0,0,1,417,108.5c0,12.08-10.51,22.06-22.37,22.06-12.29,0-21.11-10-21.11-22.06,0-11.55,10.19-21.64,21.74-21.64m2.21,41c7.87,0,12.81-7.77,12.81-15.23,0-11.87-6.83-23-17-23-8.09,0-13,7.14-13,15.44C380.21,116,386.52,127.83,397.45,127.83Zm-43.69-40h-9c-3.88,0-6.83,0-9.24-.11-2.21-.11-2.73-.63-3-1.05h-1.16c-.21.53-3,8.09-3.15,8.51l1.37.84c1.37-3.68,2.94-5.46,10.4-5.46a56.8,56.8,0,0,1,6,.32c.42,5.36.52,10.61.52,16,0,3.36-.1,15.95-.52,18.67-.21,1.26-.84,1.86-4.31,2.49-1.47.21-2.42.31-3.26.42l.32,1.7c1.12-.1,2.47-.18,4.14-.28s3.73-.17,6.78-.17c1.16,0,3-.08,4.83,0s3.37.11,5.57.21l.21-1.76a18.92,18.92,0,0,1-2-.23c-1.17-.16-3-.52-3.78-1.26-1.37-1.58-1.37-12.9-1.37-15.95,0-2.62.42-15.86.42-18.9,0-1.26.42-1.26,4.2-1.26l.13,0c1.69-.06,2.17,0,2.8,0,7.46,0,7.66,1.79,9,5.46l1.37-.84c-.11-.42-1.57-8-1.78-8.51h-1.15c-.32.42-.84.95-3,1.05-2.87.13-6.27.11-9.7.11Zm-69.2-.11c-1.68.11-3,.11-5.05.11a31.37,31.37,0,0,1-3.15-.11c-1.05-.11-1.22-.09-2.22-.21v1.79c6.09,1.15,6.63,2.1,6.42,14.28l0,7.46c0,2.83-.19,11.24-.51,13.65-.31,2.73-1.47,2.94-3,3.26-.84.21-1.79.42-2.42.53V130c1.58,0,3.15-.1,4.72-.21s3.69-.21,5.26-.21,3.25.1,4.73.21a17.92,17.92,0,0,1,2.94.21v-1.79c-8.3-1.47-8.3-2.62-8.19-9.66V100.84l.1-3.36s0,.05,30.9,32.77h2.16C317,126.78,317,117.85,317,114c0-5.57,0-19.93.2-21.72.36-2.74,4-3,6-3V87.71c-4.52,0-7,.11-9-.1a41,41,0,0,0-4.41-.31,21.9,21.9,0,0,0-2.63,0l-.31,1.58c7,.42,6.88,1,6.88,16.9,0,1.89-.07,11.16-.07,12.95Zm-38-.84a21.41,21.41,0,0,1,21.74,21.64c0,12.08-10.5,22.06-22.37,22.06-12.29,0-21.11-10-21.11-22.06C224.78,97,235,86.87,246.53,86.87Zm2.21,41c7.87,0,12.81-7.77,12.81-15.23,0-11.87-6.83-23-17-23-8.08,0-13,7.14-13,15.44C231.51,116,237.81,127.83,248.73,127.83ZM179.83,87.5c1.36.1,2.63.21,4,.21s2.63.11,3.89.11c.95,0,3.36-.21,5.78-.42s4.2-.21,5.67-.21c8.93,0,14.6,4.83,14.6,11.34,0,5.88-5.36,9.46-9.56,10.51,8.72,12.61,10.29,14.5,13.65,17.64a11,11,0,0,0,6.3,3L224,131.3c-7.25,0-10.82-2.83-12.71-4.31-6.41-5-12.71-15-13.87-17.12-1.79,0-2.52,0-5.57-.21v6.09c0,2.73-.11,8.83.74,10.51.52.94,3.67,1.89,5.78,2.52l.11,1.58a65.49,65.49,0,0,0-9.24-.74c-1.47,0-8,.42-9.35.52l-.31-1.26c.63-.11,4.41-.95,5.36-2.73.73-1.58.63-10.4.63-13.23V102.83c0-13-.63-13.24-5.88-13.55ZM192,107.24a32.41,32.41,0,0,0,4.52.21c1.58,0,10.4,0,10.4-8.4,0-3.89-2.84-9.56-10.29-9.56-4.41,0-4.41.52-4.52,7.67ZM150.63,86.87a21.41,21.41,0,0,1,21.74,21.64c0,12.08-10.5,22.06-22.37,22.06-12.29,0-21.11-10-21.11-22.06C128.89,97,139.08,86.87,150.63,86.87Zm2.21,41c7.88,0,12.81-7.77,12.81-15.23,0-11.87-6.83-23-17-23-8.09,0-13,7.14-13,15.44C135.61,116,141.92,127.83,152.84,127.83Zm-44.68-40h-9c-3.89,0-6.83,0-9.24-.11-2.21-.11-2.73-.63-3-1.05H85.72c-.21.53-3,8.09-3.15,8.51l1.36.84c1.37-3.68,2.94-5.46,10.4-5.46a56.76,56.76,0,0,1,6,.32c.42,5.36.52,10.61.52,16,0,3.36-.1,15.95-.52,18.67-.21,1.26-.84,1.86-4.31,2.49-1.47.21-2.42.31-3.26.42l.32,1.7c1.13-.1,2.48-.18,4.14-.28s3.73-.17,6.78-.17c1.16,0,3-.08,4.83,0s3.37.11,5.57.21l.21-1.76a18.93,18.93,0,0,1-2-.23c-1.18-.16-3-.52-3.78-1.26-1.36-1.58-1.36-12.9-1.36-15.95,0-2.62.42-15.86.42-18.9,0-1.26.42-1.26,4.2-1.26l.13,0c1.69-.06,2.17,0,2.79,0,7.46,0,7.67,1.79,9,5.46l1.37-.84c-.11-.42-1.57-8-1.78-8.51h-1.15c-.32.42-.84.95-3,1.05-2.87.13-6.27.11-9.7.11ZM379.52,50.75a46.93,46.93,0,0,1-6.37.28L370,51l-3.29-.09-1.09.06-.85.09v.8h.15c.83,0,1.61.12,1.95.62.48.74.54,1.49.54,8.11a68.89,68.89,0,0,1-.37,7.16c-.17.73-1.19,1-1.94,1.12l-.12,0-.07,1H365c1.86-.14,3.87-.18,4.4-.18l1.63,0,3,.15V68.77l-.22,0c-2.16-.21-2.88-.58-3.11-.86a6.4,6.4,0,0,1-.31-2.59c0-.35,0-.7,0-1,0,0,.08-2.79.09-3.45l1.54-.09a15.27,15.27,0,0,1,4.35.63c.3.1.55.7.66,1.54l0,.14h.94V62.9a51.23,51.23,0,0,0,.09-5.31v-.15h-1l0,.13c-.23,1.37-.32,1.94-4,1.94a17.1,17.1,0,0,1-2.5-.16h-.08c0-.33,0-.69,0-1.07s0-.87,0-1.33c0,0,.06-3.89.07-4.49,1.06-.13,2-.17,2.24-.17a8.6,8.6,0,0,1,4.55.93,3.15,3.15,0,0,1,1,1.85l0,.13,1-.07,0-.16c0-.3,0-1.33.1-2.23l.1-2ZM351,50.61a9.66,9.66,0,0,1,9.88,9.64,10.13,10.13,0,0,1-10.16,9.83,9.61,9.61,0,0,1-9.59-9.83A10,10,0,0,1,351,50.61Zm1,18c3.45,0,5.57-3.39,5.57-6.52,0-4.88-2.78-9.93-7.45-9.93-3.72,0-5.67,3.33-5.67,6.61C344.47,63.57,347.29,68.58,352,68.58ZM315.94,51v.93h.21c.94,0,2.23.1,2.23.85,0,.23-.4,1.33-3.94,6.46-1.53-1.84-4.9-6.18-4.9-6.74,0-.21,0-.45,2.15-.49h.15v-1.1L310,51l-3.44.06-3.73,0v1H303a3.19,3.19,0,0,1,1.93.44c1.14.8,5.17,5.94,5.3,6.16L312,60.87c.1,1.33.18,2.81.18,4.64,0,2.81,0,3.4-2.62,3.48h-.14l-.07.94h.16c.38,0,1.59-.06,2.75-.15l2-.13,1.52.08.31,0,2,.1v-1H318c-2.57-.22-2.59-.55-2.63-1.05,0,0,0-.19,0-.19-.06-1.16-.09-2.45-.09-3.85,0-1.05,0-2.18.05-3.36L319,54.82c1.17-1.8,1.82-2.79,4.33-2.83h.15V50.9h-.14c-.33,0-1.34,0-2.23.08l-1.21.06L318.51,51l-1-.06-1.4,0h-.16Zm-16.62-.52h-.59l0,.06c-.1.12-.27.35-1.25.4l-3.77,0h-5.28l-4.12,0c-1,0-1.15-.28-1.25-.4l0-.06h-.7l0,.1c-.08.19-1.36,3.55-1.41,3.75l0,.11.87.52.06-.17c.59-1.56,1.23-2.29,4.5-2.29,1,0,1.93.07,2.53.13.2,2.54.23,5,.23,6.86s-.06,7-.23,8.16c-.07.41-.19.67-1.8,1l-1.17.15-.45.05.2,1,1.55-.11.44,0,3-.07H291l1.67,0,1.27,0,1.36,0,0-.14.11-.93-.85-.09-.2,0a3.21,3.21,0,0,1-1.61-.51c-.21-.23-.56-1.45-.56-6.88l.09-3.87.09-4.41c0-.37,0-.4,1.72-.4h1.31c3,0,3.27.64,3.79,2l.16.44.86-.52-.21-1c-.3-1.47-.55-2.71-.62-2.87l0-.1ZM267.94,51V52h.15c2.46.09,2.86.59,3.05,1.1.34.83.41,6.16.41,8.14v.33c0,1.62,0,5.4-.5,6.27-.16.29-.8.8-3.21,1h-.14v1l3-.1h2.73l4.54.14,0-.17-.05-.88h-.15c-2,0-2.62,0-2.86-.81a37.76,37.76,0,0,1-.18-5.29c0-7.32,0-9.26.45-10s2.24-.71,2.76-.66l.17,0V50.94h-2.22L272.7,51,270.63,51l-.89,0-1.64,0h-.16Zm-16.63,5c0,3.2,2.73,4.32,4.72,5.13l.17.07c3.42,1.39,5,2,5,4.38,0,1.39-1,2.88-3.32,2.88A6.85,6.85,0,0,1,253.49,67,4.82,4.82,0,0,1,252,64.28l0-.12h-1.13l.06.2a14,14,0,0,1,.8,5.34v.15l.91.06,0-.11c0-.11.2-.46.42-.46a7.87,7.87,0,0,1,1.15.24l.13,0,.28.08A7,7,0,0,0,257,70c4.59,0,7.06-2.79,7.06-5.41,0-3.69-3.63-5.12-6-6.08s-4-1.69-4-3.55,1.41-3.07,3.51-3.07A5.12,5.12,0,0,1,261,53.36a4.06,4.06,0,0,1,1.13,2.33l0,.12.13,0h.83l-.25-2.46a10.24,10.24,0,0,1,.28-2.22l0-.17-.84-.13-.6.41a13.13,13.13,0,0,0-3.77-.59C254.06,50.71,251.31,52.91,251.31,56.07Zm-13.23-5.32c3.94,0,6.68,2.11,6.68,5.13,0,2.44-2.13,4.11-4.18,4.69,3.77,5.34,4.47,6.16,6,7.54a4.84,4.84,0,0,0,2.72,1.29h.16l-.07,1h-.15a8.59,8.59,0,0,1-5.78-1.92c-2.86-2.21-5.66-6.55-6.19-7.48L235,60.93v2.51s0,.68,0,.86A12.9,12.9,0,0,0,235.3,68a7,7,0,0,0,2.49,1l.1,0,.07,1-.19,0a29.34,29.34,0,0,0-4.11-.32c-.64,0-3.53.18-4.17.23h-.13l-.22-.85.17,0c.39-.06,1.92-.44,2.28-1.11s.27-3.89.27-5.3V57.77c0-5.64-.23-5.65-2.48-5.79h-.15l.07-1.1.28,0,1.66.08L233,51c.42,0,1.51-.09,2.57-.19h0Zm-3,8.81a16.3,16.3,0,0,0,1.86.08c1.68,0,4.49-.46,4.49-3.53a4.11,4.11,0,0,0-4.45-4c-1.82,0-1.82.06-1.87,3.21C235.09,55.29,235,59.3,235,59.56Zm-11.11-8.72c-2.3.14-5.94.19-8.35.19-1.46,0-5.13-.09-6.48-.14h-.16v.94l.13,0c1.59.28,1.69.31,1.8.68s.37,2.14.37,7.83a63,63,0,0,1-.42,7.57c-.12.64-.92.85-2.16,1l-.16,0,.13,1,.15,0a73.15,73.15,0,0,1,7.4-.28l7.51.09.07-.11c.39-.63,1-1.57,1.41-4.58l0-.17-.89-.07,0,.11c-.64,1.73-1.91,3.49-6.47,3.49a7.53,7.53,0,0,1-3.2-.56,26,26,0,0,1-.22-3.62s0-2.8,0-3.45a21.12,21.12,0,0,1,2.8-.17c3.67,0,4,.29,4.45,2.55l0,.12h.89v-.16c0-2.48,0-3.06.09-5.65v-.16h-1l0,.12c-.36,1.38-.66,1.65-1.19,1.73a34.09,34.09,0,0,1-5.93.19c0-.24-.09-2.48-.09-2.48a31.71,31.71,0,0,1,.31-4.38,27.11,27.11,0,0,1,3.62-.35c2.08,0,3.3.27,3.84.85a2.57,2.57,0,0,1,.41,2v.15l1.07.13V55.1c0-.2.12-.95.21-1.5l.11-.69A11.15,11.15,0,0,0,224.1,51v-.17Zm-40.68.21.06.82.13,0c2.53.31,2.63.33,4.67,4.52L192.34,65l0,.08a41.34,41.34,0,0,1,2.16,5.05l0,.11h.94l0-.11a40,40,0,0,1,2.57-6.1l4.56-8.93c1.05-2.1,1.5-2.64,3.55-3l.13,0V51h-.16c-1.16,0-2.3,0-3.46,0l-3.58-.1v.14l-.06,1h.16c.94,0,2.2.12,2.2,1.13a6.7,6.7,0,0,1-.67,2.08l-.07.16c-.93,2.1-1.52,3.25-2.14,4.47l-2.08,4.27L196,65.22a91.51,91.51,0,0,1-5.79-12.66c0-.22.05-.25,1.59-.45l.48-.06V51h-4.43c-1.08,0-3.27,0-4.4-.14l-.18,0Zm-12.68,0V52h.15c2.46.09,2.85.59,3.05,1.1.34.83.41,6.16.41,8.14v.33c0,1.62,0,5.4-.5,6.27-.16.29-.8.8-3.21,1h-.14v1l3-.1H176l4.54.14,0-.17-.06-.88h-.15c-2,0-2.62,0-2.86-.81a37.94,37.94,0,0,1-.18-5.29c0-7.32,0-9.26.45-10S180,52,180.53,52l.17,0V50.94h-2.22l-3.15.09L173.27,51l-.89,0-1.64,0h-.16Zm-10.79-.31h-.12v.12l-.18.87h.18c3.63.21,3.06.29,3.16,7.79,0,0,0,4.53,0,5l-13-13.6,0-.06-2.09,0-1.39,0h-.12l-1.27-.09,0,.18v.91l.12,0c2.61.49,3,.77,2.95,6.1l0,3.27c0,1.22-.14,4.92-.28,6s-.54,1.16-1.22,1.29l-1.22.26v1l4.38-.19,2.1.09,1.47.1V68.71l-.13,0c-3.58-.62-3.58-1-3.53-4.08l.09-7.78s0-.67,0-1.11c.71.73,13.61,14.1,13.54,14.14l0,.06,1.22,0v-.18c-.09-1.51-.09-5.43-.09-7.14,0-2.54.11-8.45.24-9.18.16-1.27,1.25-1.57,2.29-1.57h.15v-1h-.15c-2,0-3,.13-3.93,0l-.59-.07L161,50.72Zm-34.13.18-1.09,0c-1.28,0-3.86,0-4.24.09l-.15,0,.07,1h.15c1.23,0,1.64,0,1.93.2s.64,2.4.64,5.26l-.23,6.13c0,4.23,2.7,6.47,7.81,6.47,8.1,0,8.52-4.33,8.65-13.33l0-2.72V54c0-1.32.06-1.86,2.25-2h.14l.07-1.05-.42,0L138,51,135.48,51l-1.12,0V52h.15a3.63,3.63,0,0,1,2.29.46c.59.58.75,3.1.75,4.35v1.66c0,6.24-.42,10-6.23,10-5.29,0-5.29-4.22-5.29-6.24v-3.5c0-6.51.24-6.53,3.15-6.8h.14V50.9h-.15C128.45,50.86,126.84,50.89,125.66,50.92Z" transform="translate(0.42 0.2)"/><path id="Shield_Scroll" data-name="Shield &amp; Scroll" d="M61.64,115.16l-.89-1.91-1.22-2.56a5.39,5.39,0,0,0-4.28-3.15,51.15,51.15,0,0,0,7-25.6V50.7a.36.36,0,0,0-.36-.36H.05a.36.36,0,0,0-.36.36V81.94a51.14,51.14,0,0,0,7,25.6,5.4,5.4,0,0,0-4.26,3.15L1.2,113.25l-.89,1.91c-.8,1.66-1.64,5.06,1.68,9.24,2.69,3.38,8.36,7,15.16,9.7l.32.13,1.68.68c-.56.55-1.34,1.19-1.95,1.68l-.55.45c-.14.11-.26.22-.38.34l0,0s-.07.09-.11.14a3.44,3.44,0,0,0-.89,2.58v6c0,2.46,3.43,3.33,6.63,3.33H40.09c3.21,0,6.63-.87,6.63-3.33v-6a3.44,3.44,0,0,0-.89-2.58s-.07-.1-.11-.14l0,0c-.12-.11-.24-.23-.38-.34l-.54-.44c-.61-.5-1.4-1.14-2-1.69l1.68-.68.31-.12c6.8-2.69,12.47-6.32,15.16-9.7C63.28,120.23,62.44,116.82,61.64,115.16ZM.42,75h61.1v6.9c0,30.87-28.64,48.39-30.55,49.52C29.06,130.33.42,112.82.42,81.94Zm57.23,34.86a5.32,5.32,0,0,1,.05,4.88,7.22,7.22,0,0,1-.48.92L55,112.52a.36.36,0,0,0-.64.1A2.23,2.23,0,0,1,53,114,3,3,0,0,1,51,114a63,63,0,0,0,3.87-5.81l.35,0h0A3.26,3.26,0,0,1,57.65,109.91ZM38.06,140.64l.39.39H23.5l.39-.4a4,4,0,0,0,1.62-3.38V133c0-4.15-3.57-5.79-7.71-7.68-1.44-.66-2.94-1.35-4.42-2.19a35.9,35.9,0,0,1-5-3.46l3.27-4.74A74.19,74.19,0,0,0,30.79,132.2a.36.36,0,0,0,.36,0,74.2,74.2,0,0,0,19.14-17.27l3.28,4.75a36.1,36.1,0,0,1-5,3.46c-1.49.84-3,1.53-4.42,2.19-4.14,1.89-7.71,3.53-7.71,7.68v4.26A4,4,0,0,0,38.06,140.64ZM7.83,119.2a17.7,17.7,0,0,1-2.67-2.85l2.05-3a3,3,0,0,0,1.43,1.24,3.8,3.8,0,0,0,2.2.21Zm43.27-4.37a3.8,3.8,0,0,0,2.2-.21,3,3,0,0,0,1.44-1.24l2.05,3a17.69,17.69,0,0,1-2.67,2.85ZM.42,51.07h61.1V74.32H.42Zm3.88,58.84a3.26,3.26,0,0,1,2.43-1.64h0l.34,0A63.31,63.31,0,0,0,11,114a3,3,0,0,1-2-.09,2.23,2.23,0,0,1-1.35-1.33.36.36,0,0,0-.64-.1l-2.2,3.18a7.29,7.29,0,0,1-.48-.92A5.32,5.32,0,0,1,4.29,109.91Zm13.43,23.65-.32-.12c-6.69-2.65-12.25-6.19-14.86-9.48C-.37,120.28.07,117.32,1,115.48l.9-1.93L3.06,111l0-.06a6.58,6.58,0,0,0,.48,4.1c1.36,3.24,5.94,6.71,9.44,8.7,1.51.86,3,1.55,4.48,2.21,4.07,1.87,7.28,3.34,7.28,7v4.26a4.27,4.27,0,0,1-.11,1A2.84,2.84,0,0,0,24,137C22.66,135.51,20.37,134.6,17.73,133.56Zm-1.21,4.61.06-.07,0,0a4.52,4.52,0,0,1,.5-.47l.54-.44a24.74,24.74,0,0,0,2.21-1.94,10.45,10.45,0,0,1,3.64,2.31,1.87,1.87,0,0,1,.23,2.28h0l-.33.31-.9.92h-.63c-3,0-5-1-5.39-2A.88.88,0,0,1,16.52,138.17ZM46,139.58a5.17,5.17,0,0,1,0,.53v6c0,1.92-3.18,2.61-5.91,2.61H21.86c-2.73,0-5.91-.68-5.91-2.61v-6a5.16,5.16,0,0,1,0-.53c.71,1.12,2.73,2.2,5.89,2.18H40.09C43.25,141.79,45.26,140.7,46,139.58Zm-1.66-2.43.53.44a4.3,4.3,0,0,1,.5.47l0,0,.06.07a.88.88,0,0,1,.06.83c-.42,1-2.41,2.07-5.39,2h-.64l-.9-.92-.33-.31h0a1.86,1.86,0,0,1,.23-2.28,10.47,10.47,0,0,1,3.64-2.31A24.77,24.77,0,0,0,44.31,137.16ZM59.4,124c-2.61,3.29-8.17,6.83-14.86,9.48l-.31.12c-2.65,1-4.93,2-6.31,3.49a2.84,2.84,0,0,0-.64,1.26,4.28,4.28,0,0,1-.11-1V133c0-3.69,3.21-5.16,7.28-7,1.46-.67,3-1.36,4.48-2.21,3.51-2,8.08-5.46,9.44-8.7a6.57,6.57,0,0,0,.48-4.1l0,.06,1.21,2.53.9,1.93C61.87,117.32,62.32,120.28,59.4,124Z" transform="translate(0.42 0.2)"/><path id="Text" class="cls-1" d="M11.17,124.55l.21-.4c-.5-.31-1-.63-1.48-1-.07.13-.16.3-.22.42l.36.25L8.52,127l-.37-.21c-.07.13-.14.29-.2.41.81.57,1.65,1.06,2.5,1.54l.72-.92,0,0-.37-.35a2.62,2.62,0,0,1-.64.59,3.09,3.09,0,0,1-1-.59,34.64,34.64,0,0,1,1.48-3.16,1.68,1.68,0,0,1,.47.26Zm-3.89.27.59-1.1-.31-.27-.2.29c-.06,0-.56-.39-.67-.49l.7-1.36a3.58,3.58,0,0,1,.82.75c.08.17-.14.51-.17.7s.27.2.36.27c.16-.36.36-.75.52-1.11-.76-.58-1.5-1.18-2.24-1.79l-.22.38.33.3c-.57,1.1-1,2-1.58,3.09l-.33-.25-.21.38a27.11,27.11,0,0,0,2.25,1.87l.65-1,0,0-.35-.35c-.07.11-.43.57-.51.58s-.78-.56-.9-.74a8,8,0,0,1,.66-1.34,3.13,3.13,0,0,1,.62.55,1.9,1.9,0,0,1-.15.39l.32.25Zm13.18,3.94c-1.09-.61-2.25-1.09-3.37-1.62l-.57,1.08.45.26.44-.61a2.3,2.3,0,0,1,.81.26l-1.48,3.26-.5-.2-.19.39,1.75.77L18,132l-.5-.24c.48-1.06,1-2.2,1.49-3.26a1.6,1.6,0,0,1,.68.48l-.24.66c0,.09.37.18.49.23l.54-1.07Zm-3.9-1.85-1.42-.71-.19.37.48.27c-.51,1.08-1.29,3.52-2.4,2.79-.78-.51-.49-1.14-.05-2.05l.77-1.6.49.24.18-.39L12.87,125l-.19.38.33.18a5.12,5.12,0,0,1-.48,1.07c-.52,1.1-1.05,2-.56,2.74a2.11,2.11,0,0,0,.52.51,2.07,2.07,0,0,0,1,.37c1.29.11,1.88-1.62,2.58-3.12l.36.16.19-.39ZM5.79,120.53l.27.24.19-.42-1.11-1.07c-.06.14-.14.27-.21.4.11.13.27.26.39.38-.35.41-1.71,1.89-1.82,2v0c-.06-.1.48-3.15.57-3.43l.37.42.23-.39a16.36,16.36,0,0,1-1.12-1.51l-.27.36.2.35c-.1.38-.7,4.22-.73,4.64l.38.51a34.45,34.45,0,0,0,2.69-2.5Zm39.71,8.66,0,0c0-.66.11-1.25.19-1.91l0,0c.25.54.45,1,.72,1.52l-.92.43Zm3.51-.46c0,.17.16.54.09.68a3.81,3.81,0,0,1-1.23.67c-.22-.4-.37-.87-.57-1.28a6.39,6.39,0,0,1,1-.47l.19.34.41-.21-.53-1.22-.4.2.11.39a4.64,4.64,0,0,1-1,.58c-.26-.52-.46-1-.71-1.55a7.31,7.31,0,0,1,1.19-.56,1.94,1.94,0,0,1,.43.54l.39-.24a6.36,6.36,0,0,0-.5-1c-.82.44-1.83,1-2.65,1.33-.12,1.51-.27,3.05-.4,4.55l-.35.22.17.39c.47-.19.92-.43,1.4-.62l-.17-.4-.46.19c0-.49,0-1.11,0-1.6l1.13-.54c.2.4.38.93.59,1.32l-.43.22.19.39c.89-.41,2-1,2.84-1.4l-.32-1.08-.47.14Zm3.26-5.2.31-.23-.2-.38-1.32.89.2.38.44-.28c.13.63.31,2.46.34,2.89l.05.51v0c-.1,0-.44-.43-.54-.53l-1.09-1.24c-.16-.19-.35-.38-.5-.57l.49-.3-.16-.41-1.66.94.15.41.36-.18c.21.25.47.5.68.73l1.53,1.59.66.66.55-.33-.21-3.17c0-.43-.05-1-.11-1.39ZM39.86,145.23c0-.58,0-1.16,0-1.74a1.65,1.65,0,0,1,.7,0,.92.92,0,0,1,.37,1.37c-.21.29-.59.34-1.08.32Zm2,1.38c-.18-.33-.45-1.05-.81-1.17v0a1.18,1.18,0,0,0,.5-2c-.59-.47-1.82-.36-2.86-.34l0,.41h0l.43,0V147l-.42,0v.41h1.67V147l-.48,0q0-.67,0-1.33a1.52,1.52,0,0,1,.55,0c.41.17.65,1.38,1,1.73a5.38,5.38,0,0,0,1.09,0V147l-.41,0c-.13-.06-.18-.24-.25-.37Zm-10.12-.18a.86.86,0,0,1-.8.6c-.19,0-.5,0-.57-.1s0-.24,0-.37a7.69,7.69,0,0,1,0-1.17c.75,0,1.58.21,1.38,1Zm-1.39-2.95c.48,0,.86,0,1.06.3a.71.71,0,0,1,.12.51c-.1.55-.54.73-1.19.69q0-.75,0-1.49Zm1.2,1.62h0v0c.77-.31,1.16-1.31.28-1.81a6.82,6.82,0,0,0-2.7-.18v.42h.45V147l-.45,0v.41a6.67,6.67,0,0,0,2.86-.25,1.12,1.12,0,0,0,.44-1.58c-.23-.33-.46-.34-.85-.51Zm-5.7.13c0-.58,0-1.16,0-1.74a1.65,1.65,0,0,1,.7,0,.92.92,0,0,1,.37,1.37c-.21.29-.59.34-1.08.32Zm2,1.38c-.18-.33-.45-1.05-.81-1.17v0a1.18,1.18,0,0,0,.51-2c-.59-.47-1.82-.36-2.86-.34,0,.13,0,.27,0,.41h0l.43,0V147l-.42,0c0,.14,0,.27,0,.41h1.67V147l-.48,0q0-.67,0-1.33a1.52,1.52,0,0,1,.55,0c.41.17.65,1.38,1,1.73a5.36,5.36,0,0,0,1.09,0V147l-.41,0c-.13-.06-.18-.24-.25-.37Zm-6.74-.84.6-1.79h0l.58,1.78ZM22.16,143a1.56,1.56,0,0,0-.62,0L20.06,147a1.05,1.05,0,0,1-.39,0v.42h1.54V147h-.49l.24-.78,1.48,0a2.56,2.56,0,0,1,.28.79l-.46,0v.42h1.68V147h-.39l-1.38-4Zm34.11-18c-.91.76-1.91-.41-2.16-1.53a1.79,1.79,0,0,1,.18-1.47l.26-.26a1.15,1.15,0,0,1,.63-.22c1.11,0,2.19,2.56,1.09,3.48Zm.37-3.6a1.67,1.67,0,0,0-2.26-.07l-.44.38a2.52,2.52,0,0,0-.62,1.54,2.72,2.72,0,0,0,.07.72,3.14,3.14,0,0,0,.4,1,1.69,1.69,0,0,0,2.27.7c1.63-.64,1.76-3.09.57-4.23ZM35.77,147.06c-1.15.19-1.6-1.28-1.37-2.37a1.53,1.53,0,0,1,.77-1.17l.34-.09a1.21,1.21,0,0,1,.67.13c1,.61,1,3.27-.42,3.49ZM35.53,143l-.56.11a2.14,2.14,0,0,0-1.2,1,2.43,2.43,0,0,0-.24.66,2.72,2.72,0,0,0,0,1,1.94,1.94,0,0,0,1.8,1.76c1.76.28,2.88-1.7,2.26-3.29a1.9,1.9,0,0,0-2-1.21Z" transform="translate(0.42 0.2)"/><path d="M.21,74.64l61.6.07v6.9c0,30.87-29,49-30.87,50.15C29,130.63.15,112.94.15,82.07ZM42.65,101C37,94.15,29,97.55,28.9,97.58A13.41,13.41,0,0,0,25.23,99l-.74.35-1,.12-1.7.21a15.25,15.25,0,0,0-3.5,1.62l-1,.56c-1.71.92-2.11,1.68-2.2,1.9a1.2,1.2,0,0,0-.67.8,1,1,0,0,0,0,.19,1.12,1.12,0,0,0,.33.78,1.07,1.07,0,0,0,1.23.8l.33-.07a.8.8,0,0,1,1.06.56V107a1.28,1.28,0,0,1-.57.48c-.12,0-.22.11-.18.24.24.86,1.43.54,1.94.48h.15l.49-.08a8.22,8.22,0,0,1,2.48,0,4.33,4.33,0,0,1,1.22.54c-.08.14-.1.41-.25.47l-.49.1c-.75.13-2,.16-2.4,1.17a2.62,2.62,0,0,0,0,2l.29.37c.2.08.61-.25,1-.46.82-.48.67-.71.69-.8a.49.49,0,0,1,.28-.42l.17.08a3.43,3.43,0,0,0,2.38.23c0,.24-.25,1-.67,1.2a2.36,2.36,0,0,1-1.12.16,1.28,1.28,0,0,0-.82.14A6.11,6.11,0,0,0,21,114a.25.25,0,0,0,0,.25l.08.13a.25.25,0,0,0,.21.12h2.63a3,3,0,0,0,1.94-.46l.35-.29,1.19-1,1.14-1,.54-.43a1.23,1.23,0,0,0,.27-.49,19.64,19.64,0,0,0,2,1.11,4.34,4.34,0,0,0-1.44.31,3.6,3.6,0,0,0-1.62,1.34s0,.21-.08.17-.06.07,0,.14a3.51,3.51,0,0,0,1.49.92,2.49,2.49,0,0,0,1.05-.14l.66-.14c.23,0,3.09-.1,5-.09l-1.06,1a47.14,47.14,0,0,0-4.31,3.06c-1.83,1.52-3.19,3.53-3.19,4.94,0,.18-.22.45-.18.6a1.22,1.22,0,0,0,1.14.89c3.68.4,5.81-1.88,7.57-3.78l.45-.48a21.3,21.3,0,0,0,2.75-3.91,6.85,6.85,0,0,1,.61-1A12.44,12.44,0,0,0,44.55,108,8.85,8.85,0,0,0,42.65,101ZM56.86,79.32H55.5l-1.34-.86h0a.35.35,0,0,0-.22-.08H52.2a1.84,1.84,0,0,1-1-.49,4.46,4.46,0,0,0-2.88-1A3.37,3.37,0,0,0,45.42,78a3.33,3.33,0,0,0-2.86-1.16,4.47,4.47,0,0,0-2.88,1,1.85,1.85,0,0,1-1,.49H36.92a.34.34,0,0,0-.23.09l-1.33.85H34a.35.35,0,0,0-.35.35v12A.35.35,0,0,0,34,92h9.35a2.92,2.92,0,0,0,1.46.71,4.58,4.58,0,0,0,1.29,0,2.83,2.83,0,0,0,1.42-.7h9.35a.35.35,0,0,0,.35-.35v-12A.35.35,0,0,0,56.86,79.32Zm-29.17,0H26.33L25,78.43a.34.34,0,0,0-.23-.09H23a1.85,1.85,0,0,1-1-.49,4.46,4.46,0,0,0-2.88-1A3.37,3.37,0,0,0,16.26,78a3.33,3.33,0,0,0-2.85-1.16,4.46,4.46,0,0,0-2.88,1,1.85,1.85,0,0,1-1,.49H7.77a.35.35,0,0,0-.25.1l-1.31.85H4.85a.35.35,0,0,0-.35.35v12a.35.35,0,0,0,.35.35h9.34a2.94,2.94,0,0,0,1.46.71,4.58,4.58,0,0,0,1.29,0,2.84,2.84,0,0,0,1.42-.7h9.34a.35.35,0,0,0,.35-.35v-12A.35.35,0,0,0,27.69,79.28Z" transform="translate(0.42 0.2)"/><g id="Beaver"><path d="M42.81,100.84c-5.73-6.92-13.9-3.47-14-3.44a13.68,13.68,0,0,0-3.72,1.45l-.75.36-1,.12-1.73.21a15.51,15.51,0,0,0-3.56,1.65l-1,.57c-1.74.94-2.15,1.7-2.24,1.93a1.22,1.22,0,0,0-.68.81,1,1,0,0,0,0,.19,1.13,1.13,0,0,0,.34.79,1.6,1.6,0,0,0,1.32,1.1l.33-.07c.44-.14.73-.19.94.37V107a1.25,1.25,0,0,1-.6.42.25.25,0,0,0-.16.3c.25.87,1.47.73,2,.67h.15l.5-.08a8.43,8.43,0,0,1,2.5-.21,4.37,4.37,0,0,1,1.24.55.69.69,0,0,1-.36.31l-.5.11c-.76.13-1.92.33-2.34,1.35a2.64,2.64,0,0,0,0,2l.36.47c.21.08.68-.15,1-.37.83-.49.87-.79.88-.89a.5.5,0,0,1,.29-.43l.18.08a2.76,2.76,0,0,0,2.13.28,1.09,1.09,0,0,1-.6.8,2.41,2.41,0,0,1-1.14.16,1.31,1.31,0,0,0-.84.14,8.31,8.31,0,0,0-1,1.42.25.25,0,0,0,0,.26l.08.13a.25.25,0,0,0,.22.12h2.68a3.21,3.21,0,0,0,2-.35l.36-.29,1.25-1,1.26-1,.55-.44a1,1,0,0,0,.25-.45,10.35,10.35,0,0,0,1.5.81,3,3,0,0,0-1.2.28,3.07,3.07,0,0,0-1.61,1.57.23.23,0,0,0,0,.15.23.23,0,0,0,0,.21,3.54,3.54,0,0,0,1.51.93,2.54,2.54,0,0,0,1.07-.14l.67-.15c.24,0,2.76,0,4.72,0l-1.07.77a53.14,53.14,0,0,0-4.32,3.18c-1.86,1.54-3.19,3.76-3.19,5.19a1.78,1.78,0,0,0,.07.51,1.24,1.24,0,0,0,1.16.9c3.74.4,6-2,7.76-3.93l.46-.49a21.63,21.63,0,0,0,2.8-4,7,7,0,0,1,.62-1,12.6,12.6,0,0,0,4.41-8A8.94,8.94,0,0,0,42.81,100.84ZM24.2,111.06c-.41.41-1.4,0-1.83-.2l-.37-.12a.93.93,0,0,0-.78.86c0,.08-.17.21-.36.34a1.09,1.09,0,0,1-.15-.43c0-.33,0-.75-.09-.79s-.57.74-.3,1.54a2.21,2.21,0,0,1-.35.15,1.66,1.66,0,0,1-.24-.93,2.3,2.3,0,0,1,.18-.87c.31-.77,1.26-.93,2-1l.58-.13a1.18,1.18,0,0,0,.61-.5,2.85,2.85,0,0,1,.62.55,7.67,7.67,0,0,1,.57,1.57Zm7.07,3.17-.74.16a2.38,2.38,0,0,1-.83.14l-.08,0a2.2,2.2,0,0,1,.6-.71c.54-.37,1.25-.57,1.08-.65a2.12,2.12,0,0,0-2.33,1,2.64,2.64,0,0,1-.4-.29,2.52,2.52,0,0,1,1.32-1.27c.79-.32,1.06-.23,1.06-.23.3.06,2.42.41,2.88.41h0c.09.05.17.12.27.17a7.77,7.77,0,0,0,2.58.69,2.62,2.62,0,0,1-.22.57C35.52,114.22,31.62,114.19,31.27,114.23Zm13-6.35a12.25,12.25,0,0,1-4.2,7.62,4.31,4.31,0,0,0-.77,1.13,21.2,21.2,0,0,1-2.73,3.87l-.46.49c-1.8,1.94-3.85,4.14-7.34,3.77a.77.77,0,0,1-.73-.55c-.31-1,.83-3.41,3-5.17,1.71-1.42,3.26-2.46,4.28-3.15l1.28-.92a1.88,1.88,0,0,0,.26-.31.23.23,0,0,0,.06-.09,3.21,3.21,0,0,0,.4-1.12.25.25,0,0,0-.24-.28,7.6,7.6,0,0,1-2.68-.66,3.8,3.8,0,0,1-1.88-2.34c-.56-1.59.28-2.64,1.1-3.67a3.29,3.29,0,0,0,1.07-2.41.25.25,0,0,0-.5,0,.23.23,0,0,0,0,0,1.24,1.24,0,0,1,0,.18,3.37,3.37,0,0,1-1,1.85,4.89,4.89,0,0,0-1.38,3,3.45,3.45,0,0,0,.21,1.15,5,5,0,0,0,1,1.73,11.67,11.67,0,0,1-3.33-1.43.24.24,0,0,0-.15,0,13.3,13.3,0,0,0-.08-3.13.25.25,0,1,0-.5.06c.19,1.51.21,3.31-.11,3.59l-.53.42-1.28,1-1.23,1-.38.3c-.3.27-1.17.24-1.69.23H22.54c.12-.27.21-.54.11-.61s-.6.34-.85.61h-.5a6.59,6.59,0,0,1,.74-1l.52,0a2.83,2.83,0,0,0,1.37-.22,1.62,1.62,0,0,0,.88-1.28,7.07,7.07,0,0,0-.73-2.36,5.55,5.55,0,0,0-2.59-1.59,8.45,8.45,0,0,0-2.7.21l-.41.07-.2,0a2.07,2.07,0,0,1-1.29-.16,1.23,1.23,0,0,0,.57-.53l0-.51a1.09,1.09,0,0,0-1.57-.67l-.18,0a1.25,1.25,0,0,1-.85-.72l.48-.26a.25.25,0,0,0-.24-.44l-.49.27a.58.58,0,0,1-.06-.33.75.75,0,0,1,.49-.52.26.26,0,0,0,.14-.15s.28-.78,2-1.72l1.05-.57a15.5,15.5,0,0,1,3.42-1.6l2.76-.34.85-.4A13.43,13.43,0,0,1,29,97.88c.13-.05,8-3.35,13.45,3.28A8.46,8.46,0,0,1,44.24,107.89Z" transform="translate(0.42 0.2)"/><path d="M21.35,101a1,1,0,0,0-.79-.05c-.49.18-.64.72-.37.85s.43-.15.53-.19a.36.36,0,0,1,.31,0,.26.26,0,0,1,.18.22c0,.05,0,.32.24.37S22.15,101.39,21.35,101Z" transform="translate(0.42 0.2)"/><path d="M17.07,104.3c-.34.72.57,1.64.87,1.49s-.41-.77-.21-1.18,1.74-1.11,1.72-1.36S17.39,103.63,17.07,104.3Z" transform="translate(0.42 0.2)"/><path d="M35.49,117.67c-.71,0-1.38-.12-1.43.21s.69.42,1.43.45c.5,0,1.39-.1,1.34-.38S36,117.69,35.49,117.67Z" transform="translate(0.42 0.2)"/><path d="M33.75,119.29c-.85,0-1.66-.11-1.72.21s.83.42,1.72.45c.61,0,1.68-.09,1.61-.38S34.32,119.31,33.75,119.29Z" transform="translate(0.42 0.2)"/><path d="M32.23,120.94c-.8,0-1.56-.11-1.62.2s.78.4,1.61.43c.57,0,1.57-.09,1.52-.37S32.77,121,32.23,120.94Z" transform="translate(0.42 0.2)"/><path d="M30.83,122.67c-.6,0-1.16-.1-1.2.18s.58.35,1.2.37c.42,0,1.17-.08,1.13-.32S31.22,122.68,30.83,122.67Z" transform="translate(0.42 0.2)"/><path d="M17.52,103.41l.19-.06a.36.36,0,0,0-.23-.69l-.19.06a.36.36,0,0,0,.23.69Z" transform="translate(0.42 0.2)"/><path d="M28.66,99.58a.26.26,0,0,0-.3-.09l-2,.66a.4.4,0,0,0-.15.52.43.43,0,0,0,.5.25l1.86-1A.23.23,0,0,0,28.66,99.58Z" transform="translate(0.42 0.2)"/><path d="M28.83,101.64a.23.23,0,0,0,.12-.29.26.26,0,0,0-.28-.14l-1.54.23a.4.4,0,0,0-.24.49.43.43,0,0,0,.45.33Z" transform="translate(0.42 0.2)"/><path d="M28.74,103.06,27.53,103a.36.36,0,0,0-.28.4c0,.18.18.37.36.36l1.22-.25a.23.23,0,0,0,.17-.27A.26.26,0,0,0,28.74,103.06Z" transform="translate(0.42 0.2)"/><path d="M28.5,104.82l-.9-.21a.32.32,0,0,0-.3.32.34.34,0,0,0,.27.36l1-.06a.21.21,0,0,0,.18-.22A.23.23,0,0,0,28.5,104.82Z" transform="translate(0.42 0.2)"/><path d="M36.76,98.51a.36.36,0,1,0-.17.7s1.05.32,1.86.65a.3.3,0,0,0,.4-.12.29.29,0,0,0-.12-.39A15.41,15.41,0,0,0,36.76,98.51Z" transform="translate(0.42 0.2)"/><path d="M37.16,100.21a.32.32,0,0,0-.39.24.33.33,0,0,0,.24.39,13.82,13.82,0,0,1,1.4.47.27.27,0,0,0,.36-.11.26.26,0,0,0-.11-.35A9,9,0,0,0,37.16,100.21Z" transform="translate(0.42 0.2)"/><path d="M37.24,101.79a.27.27,0,0,0-.32.2.26.26,0,0,0,.2.32s.72.21,1,.32a.25.25,0,0,0,.32-.1.24.24,0,0,0-.1-.32A2.85,2.85,0,0,0,37.24,101.79Z" transform="translate(0.42 0.2)"/><path d="M37.16,103.18a.27.27,0,0,0-.29.17.24.24,0,0,0,.18.29s.43.09.63.16a.22.22,0,0,0,.29-.09.22.22,0,0,0-.09-.29A2.51,2.51,0,0,0,37.16,103.18Z" transform="translate(0.42 0.2)"/><path d="M41.94,102.25a7.27,7.27,0,0,0-1.14-1,.36.36,0,0,0-.36.63,6.36,6.36,0,0,1,1.09.76.3.3,0,0,0,.41,0A.29.29,0,0,0,41.94,102.25Z" transform="translate(0.42 0.2)"/><path d="M40.5,102.95a.33.33,0,0,0-.31.57A3.39,3.39,0,0,1,41,104a.27.27,0,0,0,.37,0,.26.26,0,0,0,0-.37A4,4,0,0,0,40.5,102.95Z" transform="translate(0.42 0.2)"/><path d="M40,104.31a.28.28,0,0,0-.36.09.26.26,0,0,0,.09.36,4.12,4.12,0,0,1,.48.33.24.24,0,0,0,.33,0,.24.24,0,0,0,0-.33A2.87,2.87,0,0,0,40,104.31Z" transform="translate(0.42 0.2)"/><path d="M39.49,105.42a.28.28,0,0,0-.33.05.24.24,0,0,0,.05.33,1.28,1.28,0,0,1,.25.18.23.23,0,0,0,.3,0,.21.21,0,0,0,0-.3C39.63,105.52,39.59,105.46,39.49,105.42Z" transform="translate(0.42 0.2)"/><path d="M42.87,105.7a.24.24,0,0,0,.33.08.24.24,0,0,0,.08-.32A1.91,1.91,0,0,0,43,105a.27.27,0,0,0-.37,0,.26.26,0,0,0,0,.37A2.53,2.53,0,0,1,42.87,105.7Z" transform="translate(0.42 0.2)"/><path d="M42.18,106a.28.28,0,0,0-.33,0,.24.24,0,0,0,0,.34l.16.15c.1.09.19.13.29.07a.22.22,0,0,0,.07-.29A.64.64,0,0,0,42.18,106Z" transform="translate(0.42 0.2)"/></g><g id="Right_Book" data-name="Right Book"><path d="M57.19,79.08H55.79l-1.38-.89h0a.35.35,0,0,0-.22-.09H52.4a1.88,1.88,0,0,1-1-.51,4.56,4.56,0,0,0-3-1.06,3.45,3.45,0,0,0-2.95,1.2,3.41,3.41,0,0,0-2.93-1.2,4.57,4.57,0,0,0-3,1.06,1.88,1.88,0,0,1-1,.51H36.72a.35.35,0,0,0-.24.1l-1.36.88H33.72a.36.36,0,0,0-.36.36V91.9a.36.36,0,0,0,.36.36h9.59a3,3,0,0,0,1.5.74,4.68,4.68,0,0,0,1.32,0,2.9,2.9,0,0,0,1.46-.73h9.59a.36.36,0,0,0,.36-.36V79.44A.36.36,0,0,0,57.19,79.08Zm-11.37-.62s.39-1.21,2.58-1.21a3.84,3.84,0,0,1,2.53.92,2.47,2.47,0,0,0,1.47.64h1.43V89H52.37a4.33,4.33,0,0,1-1.6-.49,6.44,6.44,0,0,0-2.6-.69,3.56,3.56,0,0,0-2.35,1Zm-8.74.36h1.43A2.47,2.47,0,0,0,40,78.18a3.84,3.84,0,0,1,2.53-.92c2.19,0,2.58,1.25,2.59,1.3s0,9.31,0,10.25a3.57,3.57,0,0,0-2.36-1,6.44,6.44,0,0,0-2.59.69,4.33,4.33,0,0,1-1.6.49H37.08Zm-1.53.84.81-.52V89.32a.36.36,0,0,0,.36.36h1.82a4.88,4.88,0,0,0,1.89-.54,5.76,5.76,0,0,1,2.31-.63,3.1,3.1,0,0,1,2.08,1,.36.36,0,0,0,.27.13h.72a.36.36,0,0,0,.27-.13,3.1,3.1,0,0,1,2.08-1,5.76,5.76,0,0,1,2.31.63,4.88,4.88,0,0,0,1.89.54h1.82a.36.36,0,0,0,.36-.36V79.13l.81.52V90H47.25a.36.36,0,0,0-.26.11,2.51,2.51,0,0,1-1.33.66H45.3a2.48,2.48,0,0,1-1.37-.66.36.36,0,0,0-.26-.11H35.55ZM56.82,91.54H47.44a.36.36,0,0,0-.28.13,2.13,2.13,0,0,1-1.16.61,4,4,0,0,1-1.06,0,2.2,2.2,0,0,1-1.2-.62.37.37,0,0,0-.27-.12H34.08V79.8h.74V90.36a.36.36,0,0,0,.36.36h8.33a3.11,3.11,0,0,0,1.71.77h.51a3.14,3.14,0,0,0,1.65-.77h8.33a.36.36,0,0,0,.36-.36V79.8h.74Z" transform="translate(0.42 0.2)"/><path d="M38.64,80.65a4.6,4.6,0,0,0,1.62-.41l.59-.28L42,79.5a3.9,3.9,0,0,1,1.56,0,.16.16,0,0,1-.12-.19.16.16,0,0,1,.19-.12,4.22,4.22,0,0,0-1.71,0l-1.18.47-.58.28a4.25,4.25,0,0,1-1.5.38.16.16,0,0,0,0,.32Z" transform="translate(0.42 0.2)"/><path d="M38.64,82.79a4.62,4.62,0,0,0,1.62-.41l.6-.28L42,81.65a3.9,3.9,0,0,1,1.56,0,.16.16,0,0,0,.07-.31,4.26,4.26,0,0,0-1.71,0l-1.18.47-.58.28a4.3,4.3,0,0,1-1.5.38.16.16,0,0,0-.15.17A.16.16,0,0,0,38.64,82.79Z" transform="translate(0.42 0.2)"/><path d="M38.64,84.93a4.57,4.57,0,0,0,1.62-.41l.59-.28L42,83.79a4,4,0,0,1,1.56,0,.16.16,0,1,0,.06-.31,4.33,4.33,0,0,0-1.71.05L40.71,84l-.58.28a4.24,4.24,0,0,1-1.5.38.16.16,0,1,0,0,.32Z" transform="translate(0.42 0.2)"/><path d="M40.26,86.67l.6-.28L42,85.93a4,4,0,0,1,1.56,0,.16.16,0,1,1,.06-.31,4.32,4.32,0,0,0-1.71.05l-1.18.47-.58.28a4.25,4.25,0,0,1-1.5.38.16.16,0,0,0,0,.32A4.6,4.6,0,0,0,40.26,86.67Z" transform="translate(0.42 0.2)"/><path d="M47.3,79.46a3.93,3.93,0,0,1,1.56,0L50,80l.59.28a4.6,4.6,0,0,0,1.62.41.16.16,0,0,0,0-.32,4.26,4.26,0,0,1-1.5-.38l-.58-.28-1.18-.47a4.26,4.26,0,0,0-1.71,0,.16.16,0,0,0-.12.19A.16.16,0,0,0,47.3,79.46Z" transform="translate(0.42 0.2)"/><path d="M47.3,81.6a3.94,3.94,0,0,1,1.56,0L50,82.1l.6.28a4.58,4.58,0,0,0,1.62.41.16.16,0,0,0,.17-.15.16.16,0,0,0-.15-.17,4.31,4.31,0,0,1-1.5-.38l-.59-.28-1.18-.47a4.26,4.26,0,0,0-1.71,0,.16.16,0,0,0-.12.19A.16.16,0,0,0,47.3,81.6Z" transform="translate(0.42 0.2)"/><path d="M47.3,83.74a4,4,0,0,1,1.56,0l1.12.45.59.28a4.57,4.57,0,0,0,1.62.41.16.16,0,1,0,0-.32,4.24,4.24,0,0,1-1.5-.38L50.12,84l-1.18-.47a4.28,4.28,0,0,0-1.71-.05.16.16,0,0,0-.13.19A.16.16,0,0,0,47.3,83.74Z" transform="translate(0.42 0.2)"/><path d="M50,86.38l.6.29a4.6,4.6,0,0,0,1.62.41.16.16,0,0,0,0-.32,4.25,4.25,0,0,1-1.5-.38l-.59-.28-1.18-.47a4.28,4.28,0,0,0-1.71-.05.16.16,0,0,0-.13.19.16.16,0,0,0,.19.13,4,4,0,0,1,1.56,0Z" transform="translate(0.42 0.2)"/></g><g id="Left_Book" data-name="Left Book"><path d="M9.55,80.65a4.6,4.6,0,0,0,1.62-.41l.59-.28,1.12-.45a3.9,3.9,0,0,1,1.56,0,.16.16,0,0,1-.12-.19.16.16,0,0,1,.19-.12,4.22,4.22,0,0,0-1.71,0l-1.18.47-.58.28a4.25,4.25,0,0,1-1.5.38.16.16,0,0,0,0,.32Z" transform="translate(0.42 0.2)"/><path d="M9.55,82.79a4.62,4.62,0,0,0,1.62-.41l.6-.28,1.11-.45a3.9,3.9,0,0,1,1.56,0,.16.16,0,0,0,.07-.31,4.26,4.26,0,0,0-1.71,0l-1.18.47-.59.28a4.3,4.3,0,0,1-1.5.38.16.16,0,0,0-.15.17A.16.16,0,0,0,9.55,82.79Z" transform="translate(0.42 0.2)"/><path d="M9.55,84.93a4.56,4.56,0,0,0,1.62-.41l.59-.28,1.12-.45a4,4,0,0,1,1.56,0,.16.16,0,1,0,.06-.31,4.33,4.33,0,0,0-1.71.05L11.62,84l-.58.28a4.24,4.24,0,0,1-1.5.38.16.16,0,1,0,0,.32Z" transform="translate(0.42 0.2)"/><path d="M9.55,87.08a4.6,4.6,0,0,0,1.62-.41l.6-.29,1.11-.45a4,4,0,0,1,1.56,0,.16.16,0,1,1,.06-.31,4.32,4.32,0,0,0-1.71.05l-1.18.47-.59.28a4.25,4.25,0,0,1-1.5.38.16.16,0,0,0,0,.32Z" transform="translate(0.42 0.2)"/><path d="M18.33,79.27a.16.16,0,0,1-.12.19,3.92,3.92,0,0,1,1.56,0l1.12.45.59.28a4.61,4.61,0,0,0,1.62.41.16.16,0,0,0,0-.32,4.26,4.26,0,0,1-1.5-.38L21,79.67l-1.18-.47a4.22,4.22,0,0,0-1.71,0A.16.16,0,0,1,18.33,79.27Z" transform="translate(0.42 0.2)"/><path d="M18.21,81.6a3.92,3.92,0,0,1,1.56,0l1.12.45.6.28a4.58,4.58,0,0,0,1.62.41.16.16,0,0,0,.17-.15.16.16,0,0,0-.15-.17,4.31,4.31,0,0,1-1.5-.38L21,81.81l-1.18-.47a4.25,4.25,0,0,0-1.71,0,.16.16,0,0,0,.07.31Z" transform="translate(0.42 0.2)"/><path d="M19.77,83.79l1.12.45.59.28a4.57,4.57,0,0,0,1.62.41.16.16,0,1,0,0-.32,4.25,4.25,0,0,1-1.5-.38L21,84l-1.18-.47a4.33,4.33,0,0,0-1.71-.05.16.16,0,1,0,.06.31A4,4,0,0,1,19.77,83.79Z" transform="translate(0.42 0.2)"/><path d="M20.88,86.38l.6.29a4.6,4.6,0,0,0,1.62.41.16.16,0,0,0,0-.32,4.26,4.26,0,0,1-1.5-.38L21,86.09l-1.18-.47a4.32,4.32,0,0,0-1.71-.05.16.16,0,0,1,.19.13.16.16,0,0,1-.13.19,4,4,0,0,1,1.56,0Z" transform="translate(0.42 0.2)"/><path d="M28,79.1H26.65l-1.36-.88a.35.35,0,0,0-.24-.1H23.26a1.88,1.88,0,0,1-1-.51,4.57,4.57,0,0,0-3-1.06,3.44,3.44,0,0,0-2.95,1.2,3.41,3.41,0,0,0-2.93-1.2,4.56,4.56,0,0,0-3,1.06,1.88,1.88,0,0,1-1,.51H7.57a.37.37,0,0,0-.25.1L6,79.1H4.58a.36.36,0,0,0-.36.36V91.92a.36.36,0,0,0,.36.36h9.59a3,3,0,0,0,1.5.74A4.69,4.69,0,0,0,17,93a2.89,2.89,0,0,0,1.46-.73H28a.36.36,0,0,0,.36-.36V79.47A.36.36,0,0,0,28,79.1Zm-11.37-.62s.39-1.21,2.58-1.21a3.84,3.84,0,0,1,2.53.92,2.47,2.47,0,0,0,1.47.64h1.43V89H23.23a4.33,4.33,0,0,1-1.61-.49,6.44,6.44,0,0,0-2.6-.69,3.56,3.56,0,0,0-2.35,1Zm-8.74.36H9.37a2.47,2.47,0,0,0,1.47-.64,3.84,3.84,0,0,1,2.53-.92c2.19,0,2.58,1.25,2.59,1.3s0,9.31,0,10.25a3.56,3.56,0,0,0-2.35-1,6.45,6.45,0,0,0-2.6.69,4.32,4.32,0,0,1-1.6.49H7.94Zm-1.53.84.81-.52V89.35a.36.36,0,0,0,.36.36H9.39a4.88,4.88,0,0,0,1.89-.54,5.76,5.76,0,0,1,2.31-.63,3.1,3.1,0,0,1,2.08,1,.36.36,0,0,0,.27.13h.72a.36.36,0,0,0,.27-.13,3.1,3.1,0,0,1,2.08-1,5.76,5.76,0,0,1,2.31.63,4.88,4.88,0,0,0,1.89.54H25a.36.36,0,0,0,.36-.36V79.16l.81.52V90H18.1a.36.36,0,0,0-.26.11,2.51,2.51,0,0,1-1.33.66h-.35a2.48,2.48,0,0,1-1.38-.66.36.36,0,0,0-.26-.11H6.41ZM27.68,91.56H18.3a.36.36,0,0,0-.28.13,2.13,2.13,0,0,1-1.16.61,4,4,0,0,1-1.06,0,2.2,2.2,0,0,1-1.2-.62.37.37,0,0,0-.27-.12H4.94V79.83h.74V90.39a.36.36,0,0,0,.36.36h8.33a3.12,3.12,0,0,0,1.71.77h.51a3.14,3.14,0,0,0,1.65-.77h8.33a.36.36,0,0,0,.36-.36V79.83h.74Z" transform="translate(0.42 0.2)"/></g><g id="Crown"><path d="M30.87,67.48c-4.59,0-9.46,1.1-9.46,3.14,0,.94,1,1.67,2.57,2.2.16.06.62.18.66.1a5.67,5.67,0,0,0-.57-.28c-1.41-.64-1.94-1.44-1.94-2,0-1.14,3.73-2.42,8.74-2.42s8.73,1.28,8.73,2.42c0,.58-.5,1.37-1.87,2a4,4,0,0,0-.55.27c-.05.09.6-.09.6-.09,1.53-.52,2.54-1.26,2.54-2.19C40.32,68.57,35.45,67.48,30.87,67.48Z" transform="translate(0.42 0.2)"/><path d="M41.72,63.95a11.13,11.13,0,0,0-1.43,2.58v0l0,0a10.27,10.27,0,0,0-1.49-.69,23.44,23.44,0,0,0-7.8-1.17h0a23.44,23.44,0,0,0-7.79,1.17,10.31,10.31,0,0,0-1.49.69l0,0v0a11.09,11.09,0,0,0-1.43-2.58c-.12-.15-.29,0-.21.14a9.81,9.81,0,0,1,1,2.94c0,.22.07.37.25.46a.37.37,0,0,0,.34,0,9.17,9.17,0,0,1,1.85-.92,22.7,22.7,0,0,1,7.54-1.13h0a22.71,22.71,0,0,1,7.54,1.13,9.14,9.14,0,0,1,1.85.92.37.37,0,0,0,.34,0c.19-.08.21-.24.25-.46a9.78,9.78,0,0,1,1-2.94C42,63.95,41.84,63.8,41.72,63.95Z" transform="translate(0.42 0.2)"/><circle cx="31.34" cy="66.63" r="0.64"/><circle cx="26.79" cy="66.99" r="0.64"/><circle cx="22.07" cy="68.22" r="0.64" transform="translate(-29.97 19.53) rotate(-29.09)"/><circle cx="24.59" cy="67.51" r="0.34"/><circle cx="29.05" cy="66.74" r="0.34"/><circle cx="35.87" cy="66.99" r="0.64"/><circle cx="39.76" cy="68.22" r="0.64" transform="translate(-38.76 69.96) rotate(-60.89)"/><circle cx="38.08" cy="67.51" r="0.34"/><circle cx="33.61" cy="66.74" r="0.34"/><circle cx="31.32" cy="59.42" r="0.65"/><circle cx="31.32" cy="57.6" r="0.65"/><circle cx="31.32" cy="55.77" r="0.65"/><circle cx="28.16" cy="55.93" r="0.65"/><circle cx="26.02" cy="55.23" r="0.65"/><circle cx="23.81" cy="54.75" r="0.65"/><circle cx="21.56" cy="55.06" r="0.65"/><circle cx="19.62" cy="56.28" r="0.65"/><circle cx="18.49" cy="58.25" r="0.65"/><circle cx="18.51" cy="60.55" r="0.65"/><circle cx="19.32" cy="62.67" r="0.65"/><path d="M38.43,71.21c0-1.59-4.95-2-7.57-2s-7.57.42-7.57,2,5,2,7.57,2S38.43,72.8,38.43,71.21Zm-7.57,1.28c-4.52,0-6.85-.9-6.85-1.28s2.33-1.28,6.85-1.28,6.84.9,6.84,1.28S35.38,72.49,30.87,72.49Z" transform="translate(0.42 0.2)"/><path d="M29.88,53.54h.69v.72a.36.36,0,0,0,.72,0v-.72H32a.36.36,0,0,0,0-.72h-.68v-.66a.36.36,0,0,0-.72,0v.66h-.69a.36.36,0,0,0,0,.72Z" transform="translate(0.42 0.2)"/><path d="M21.34,64.23h0l0,0v0a1.76,1.76,0,0,0,2.18.83c.53-.17,1.08-.28,1.4-.89A1,1,0,0,0,24.88,63c-.09-.12-.36-.26-.48-.2a.27.27,0,0,0,0,.39.48.48,0,0,1-.21.7.35.35,0,0,1-.46-.08s.38-.29,0-.59-1-.89,0-1.33c.74-.35,1.32.65,1.39.79s.15.08.13-.06c-.15-.72-.76-1-.92-1.75a1.45,1.45,0,0,1,.53-1.28.33.33,0,0,1,.33,0,1.43,1.43,0,0,1,.94,1c.16.79-.31,1.24-.17,2,0,.14.13.16.14,0s.15-1.3,1-1.27c1,0,.67.94.5,1.23s.24.48.25.51-.13.29-.39.27a.48.48,0,0,1-.47-.57.27.27,0,0,0-.2-.34c-.14,0-.33.23-.37.37a1,1,0,0,0,.4,1.12,2.46,2.46,0,0,0,1.78.34c1.47-.16,1.56-1.05,1.56-1.05-.3.13-1,.37-1,.37h-.07a.23.23,0,0,1-.23-.23V61.88a.23.23,0,0,1,.23-.23l.09,0,1,.4-.28-.81a.22.22,0,0,1,0-.09.23.23,0,0,1,.23-.23h1.69a.23.23,0,0,1,.23.23.23.23,0,0,1,0,.09l-.29.81,1-.4.09,0a.23.23,0,0,1,.23.23V63.3a.23.23,0,0,1-.23.23h-.07s-.68-.24-1-.37c0,0,.09.9,1.57,1.05a2.46,2.46,0,0,0,1.78-.34,1,1,0,0,0,.4-1.12c0-.14-.23-.38-.37-.37a.27.27,0,0,0-.2.34.48.48,0,0,1-.47.57c-.25,0-.42-.19-.38-.27s.46-.1.25-.51-.55-1.19.5-1.23c.82,0,1,1.11,1,1.27s.11.14.14,0c.14-.72-.33-1.17-.17-2a1.43,1.43,0,0,1,.94-1,.33.33,0,0,1,.33,0,1.45,1.45,0,0,1,.53,1.28c-.16.8-.77,1-.91,1.75,0,.14.05.2.13.06s.65-1.14,1.39-.79c.95.45.25,1.13,0,1.33s0,.55,0,.59a.35.35,0,0,1-.46.08.48.48,0,0,1-.21-.7.27.27,0,0,0,0-.39c-.12-.06-.39.08-.48.2a1,1,0,0,0-.06,1.19c.32.61.87.72,1.4.89a1.76,1.76,0,0,0,2.18-.83v0l0,0h0c.69-.93,2.29-3.12,2.29-5.13s-1.74-3.46-4-3.46a8.51,8.51,0,0,0-2.89.68,6.73,6.73,0,0,1-3,.6v-2a.36.36,0,1,0-.72,0v5.33H29.64V54.9a.36.36,0,1,0-.72,0v2a6.73,6.73,0,0,1-2.95-.6,8.51,8.51,0,0,0-2.89-.68c-2.3,0-4,1.49-4,3.46S20.65,63.29,21.34,64.23ZM36.13,57a7.83,7.83,0,0,1,2.64-.64c1.89,0,3.31,1.18,3.31,2.74a4.6,4.6,0,0,1-.35,1.6,2.84,2.84,0,0,0-.5-1.08,3.4,3.4,0,0,0-2.92-1.16,4.43,4.43,0,0,0-3-1.1l-.31,0C35.41,57.26,35.77,57.13,36.13,57Zm-3.2.66a4.25,4.25,0,0,0,.67,0,3.28,3.28,0,0,0-.67.37ZM33,59a3,3,0,0,1,2.37-.91,3.6,3.6,0,0,1,2.57,1,.36.36,0,0,0,.3.14,2.8,2.8,0,0,1,2.46.88A2.52,2.52,0,0,1,41,62.12s0,0,0,0c-.11.2-.23.38-.34.55a2.66,2.66,0,0,0-1.57-2.6s-.25-.12-.34,0,1.55,1.46,1.1,3a1.8,1.8,0,0,1-1.14,1.34h-.13a.82.82,0,0,0,.29-.61.77.77,0,0,0,0-.2l0,0a1.61,1.61,0,0,0,.51-1.09,1.26,1.26,0,0,0,0-.13,1.38,1.38,0,0,0-.89-1.09l-.23-.08s0-.08,0-.13a1.81,1.81,0,0,0,0-.34,2.35,2.35,0,0,0-1-1.77.76.76,0,0,0-.6-.12A2.34,2.34,0,0,0,35,60.4c0,.05,0,.09,0,.14a1.54,1.54,0,0,0-1.3.38c0-.17-.18-.32-.5-.25a5,5,0,0,1,.89-.9c.49-.37,1.06-.59,1.05-.68s-.21-.16-.46-.14a2.32,2.32,0,0,0-.73.2,3.8,3.8,0,0,0-1.06.79V59Zm-4.85,1.94a1.5,1.5,0,0,0-1-.4,1.48,1.48,0,0,0-.25,0c0-.05,0-.09,0-.14a2.34,2.34,0,0,0-1.68-1.59.76.76,0,0,0-.6.12,2.35,2.35,0,0,0-1,1.77,1.73,1.73,0,0,0,0,.34s0,.09,0,.13l-.24.08a1.37,1.37,0,0,0-.89,1.09,1.12,1.12,0,0,0,0,.13A1.61,1.61,0,0,0,23,63.58l0,0a.79.79,0,0,0,.27.81h-.13A1.79,1.79,0,0,1,22,63.1c-.45-1.53,1.28-2.74,1.1-3s-.34,0-.34,0a2.66,2.66,0,0,0-1.57,2.6l-.34-.55s0,0,0,0a2.52,2.52,0,0,1,.37-2.06,2.8,2.8,0,0,1,2.46-.88.36.36,0,0,0,.3-.14,3.6,3.6,0,0,1,2.57-1,3,3,0,0,1,2.37.91l0,0v.93a3.79,3.79,0,0,0-1.06-.79,2.34,2.34,0,0,0-.73-.2c-.25,0-.45.05-.46.14s.57.31,1.05.68a5,5,0,0,1,.89.9C28.29,60.61,28.11,60.76,28.11,60.93Zm.81-3.26V58a3.25,3.25,0,0,0-.67-.37A4.25,4.25,0,0,0,28.92,57.66Zm-5.83-1.3a7.85,7.85,0,0,1,2.64.64c.36.13.72.26,1.09.37l-.31,0a4.43,4.43,0,0,0-3,1.1,3.4,3.4,0,0,0-2.92,1.16,2.84,2.84,0,0,0-.5,1.08,4.61,4.61,0,0,1-.35-1.6C19.76,57.54,21.19,56.36,23.08,56.36Z" transform="translate(0.42 0.2)"/><circle cx="34.52" cy="55.93" r="0.65"/><circle cx="36.66" cy="55.23" r="0.65"/><circle cx="38.87" cy="54.75" r="0.65"/><circle cx="41.12" cy="55.06" r="0.65"/><circle cx="43.06" cy="56.28" r="0.65"/><circle cx="44.19" cy="58.25" r="0.65"/><circle cx="44.17" cy="60.55" r="0.65"/><circle cx="43.36" cy="62.67" r="0.65"/><polygon points="31.34 61.14 31.34 61.14 31.34 61.14 31.34 61.14"/></g><path id="Tree" d="M52.07,23.42a1.12,1.12,0,0,0,.09-.37,1.22,1.22,0,0,0-.38-.86c-.75-.78-2,0-2.57.36a1.27,1.27,0,0,0-.34-.57.69.69,0,0,0,.05-.34c0-.47-.52-.67-.77-.78l0,0c.56.05,1.42.05,1.66-.76l0-.46c-.08-.05.57.06.57.06.81.18,2,.45,2.48-.42a.76.76,0,0,0,.09-.35,1.48,1.48,0,0,0-.3-.77L52.56,18c.36-.18,1.29-.66,1.29-1.61a1.86,1.86,0,0,0-.18-.77c-.44-1-1.42-.68-1.94-.52l-.19,0v-.06a2.81,2.81,0,0,0,0-.32,1,1,0,0,0-.23-.68,1.16,1.16,0,0,0-.52-.33,1.49,1.49,0,0,0,.39-1,1.61,1.61,0,0,0-.13-.61,1.12,1.12,0,0,0-.62-.64,2.63,2.63,0,0,0-1.91.3,1.78,1.78,0,0,0-.12-.27,1.16,1.16,0,0,0,.08-.41,2,2,0,0,0-.16-.75,2.12,2.12,0,0,0,1-1.18,1,1,0,0,0,0-.2,1.07,1.07,0,0,0-.26-.69,1.85,1.85,0,0,0-2.17-.32l-.07,0a1.27,1.27,0,0,0-.9-.76c-.63-.15-1.27.41-1.74.82L44,8.31l-.07-.07-.7-.46c-.64-.13-1.34.9-1.51,1.18h0a1.28,1.28,0,0,0-.37-.4l.09-.08a2.15,2.15,0,0,0,.89-1.39v0a1.28,1.28,0,0,0-.42-.91,1.58,1.58,0,0,0-1.16-.54,2.55,2.55,0,0,0-1.67,1L39,6.69a2.09,2.09,0,0,0-.16-.37,1.4,1.4,0,0,0,.06-.4,1.34,1.34,0,0,0-.08-.47.88.88,0,0,0-.19-.25,2.16,2.16,0,0,0,.94-1.46,1,1,0,0,0-.12-.46,1.5,1.5,0,0,0-1.13-.84v0a4.55,4.55,0,0,0,0-.55A1.26,1.26,0,0,0,37.4.47c-.95-.23-1.57.59-1.9,1l-.09.11a1.33,1.33,0,0,0-1.09-.46A1.47,1.47,0,0,0,33.23.46c-.9-.12-1.25,1-1.48,1.68l-.13.36-.13,0a1.26,1.26,0,0,0-1,.06,1,1,0,0,0-.5.87,4.09,4.09,0,0,0,.59,1.69l.1.22a1.47,1.47,0,0,0-.94.51,1.21,1.21,0,0,0-.19.45l-.16-.17c.11-.62.39-2.55,0-3.09a.68.68,0,0,0-.52-.26c-.08,0-.15.06-.23.08,0-.71-.15-1.7-.9-1.93a1,1,0,0,0-1.06.17C26.18.49,25.32-.53,24.35-.08a1,1,0,0,0-.59,1,4.26,4.26,0,0,0,.36,1.45l0,.07a1,1,0,0,0-1,.78,1.17,1.17,0,0,0,0,.28s0,0,0,.07A1.66,1.66,0,0,0,21,3.48a1.24,1.24,0,0,0-.54,1.07A3.78,3.78,0,0,0,21,6.23a1.24,1.24,0,0,0-.84,1,1.65,1.65,0,0,0,0,.19c0,1.14,1.25,1.5,1.93,1.7l.12,0,0,0a1.14,1.14,0,0,1-.57.31,1.79,1.79,0,0,0-.24-.16c-.58-.37-1.78-1.15-2.79-.06a1.1,1.1,0,0,0-.32.76A2.3,2.3,0,0,0,19,11.37l.22.27s-.11.22-.11.22l-.23.74a1.38,1.38,0,0,0,0,.19l-.16.11,0-.35c0-.66-.1-1.57-.83-1.79a.85.85,0,0,0-.92.35v-.06c-.11-.72-.29-1.91-1.2-1.93-.49,0-.74.47-.92.82l-.06.1L14.65,10c-.28-.35-.8-1-1.52-.68a1.32,1.32,0,0,0-.78,1.35,4.65,4.65,0,0,0,.12.92l0,.18-.09,0a1.46,1.46,0,0,0-.84.74,1,1,0,0,0-.06.33c0,.74.89,1.29,1.58,1.64a2.31,2.31,0,0,0-.45.38,1.66,1.66,0,0,0-1.34-.14,1,1,0,0,0-.62,1c0,.06,0,.1,0,.15a1.26,1.26,0,0,0-1.63.68,1.71,1.71,0,0,0-.19.75,1.31,1.31,0,0,0,.15.61,2.4,2.4,0,0,0,1.46,1,1.15,1.15,0,0,0-.25.51l.25.79c.48.56,1.18.28,1.69.07s.79-.28.93-.1a1.68,1.68,0,0,1-.35.53,1,1,0,0,0-.38,0,1,1,0,0,0-.78.7,2.39,2.39,0,0,0-1.89-.81.86.86,0,0,0-.72.94A2.74,2.74,0,0,0,9,22v0L9,22a1.92,1.92,0,0,0-1.49.08,1.16,1.16,0,0,0-.48.8,1.62,1.62,0,0,0,0,.28c0,1,1.06,1.33,1.61,1.48a1.26,1.26,0,0,0-.29.73.89.89,0,0,0,.34.68A1.61,1.61,0,0,0,10.78,26l.05,0a3,3,0,0,0,.06.41l0,.23-.17.06a1.58,1.58,0,0,0-1.06.67.94.94,0,0,0-.1.44,1.38,1.38,0,0,0,.08.45c.34,1,1.35.92,1.83.9h.15v.08a1.41,1.41,0,0,0,.42,1c.88.81,2.09-.19,2.6-.61h0l.29.21a1.56,1.56,0,0,0,.29.51h0l-.09.09a2.46,2.46,0,0,0-1,1.61,1.36,1.36,0,0,0,.26.78c.45.65,1.42.18,2.21-.2l.53-.23h0a.37.37,0,0,0,0,.09.91.91,0,0,0,1.23.75,2.29,2.29,0,0,0,1.71-1.75,3.22,3.22,0,0,1,.22-.48l.43.47.49-.08c.66-.41,1.15-1.95,1.31-2.51A7.78,7.78,0,0,1,25.51,32a25.05,25.05,0,0,0,1.41,2.39c.45.72,1,1.58,1.1,1.82a5.31,5.31,0,0,1-2.59,4.16l-.57.29A26.15,26.15,0,0,0,20.75,43l-.31,0a2.53,2.53,0,0,0-1.44.37A3.68,3.68,0,0,0,17.44,43a2.4,2.4,0,0,0-2.34,1.23,2.7,2.7,0,0,0,.06,2.56,2.66,2.66,0,0,0,2.32,1.12,2.32,2.32,0,0,0,1.37-.36,3,3,0,0,0,1.4.33,2.83,2.83,0,0,0,1.49-.35,2.63,2.63,0,0,0,1.31.38,2.1,2.1,0,0,0,1.27-.36,2.65,2.65,0,0,0,1.29.32A2.61,2.61,0,0,0,27,47.5a2.65,2.65,0,0,0,1.32.37,2.09,2.09,0,0,0,1.27-.36,2.9,2.9,0,0,0,2.66,0,2.64,2.64,0,0,0,1.31.37,2.1,2.1,0,0,0,1.27-.36,2.65,2.65,0,0,0,1.29.32,2.62,2.62,0,0,0,1.38-.33,2.65,2.65,0,0,0,1.31.37,2.1,2.1,0,0,0,1.27-.36,2.65,2.65,0,0,0,1.29.32,2.5,2.5,0,0,0,1.46-.38,3.67,3.67,0,0,0,1.59.42,2.46,2.46,0,0,0,2.37-1.28,2.62,2.62,0,0,0-.1-2.52A2.68,2.68,0,0,0,44.38,43a2.31,2.31,0,0,0-1.37.36,2.94,2.94,0,0,0-1-.3c-.42-.84-1.06-1.11-3.25-2l-.3-.13c-2.35-1-2.88-1.93-3.31-2.69l-.06-.11c-.39-.68-1.2-4.83.47-7.39a6.16,6.16,0,0,1,2.8-2.38A4.69,4.69,0,0,0,39,30.36l.58.3.32-.17.1.21c.29.71.69,1.68,1.46,1.78a1,1,0,0,0,1-.4,2,2,0,0,0,1.4.8,1.31,1.31,0,0,0,1-.55,1.42,1.42,0,0,0,1.77-.38,1.06,1.06,0,0,0,.2-.59,1.33,1.33,0,0,0-.62-1l0,0a1,1,0,0,0,.33-.61,1.2,1.2,0,0,0,.65-.17.9.9,0,0,0,.41-.74h.05a1.17,1.17,0,0,0,1.38-.56,1.47,1.47,0,0,0,.11-.44,1,1,0,0,0,.54-.62h0a2.11,2.11,0,0,0,1.61.28,1.31,1.31,0,0,0,.62-1.17h0a2,2,0,0,0,1.57-.14,1.31,1.31,0,0,0,.52-.92,1.8,1.8,0,0,0,0-.26C54.06,23.77,52.65,23.51,52.07,23.42Zm-3.35-1.19a.35.35,0,0,1-.29.25A1.7,1.7,0,0,0,48.72,22.22Zm-.51-.5-.23.19-.32.28-.13.3c-.14.44-.43,1.32-2.06,1.62L45.37,24a3.23,3.23,0,0,1-.57-1.38,4.91,4.91,0,0,1,.1-1.82c1.32-.14,2.24,0,2.59.51a4.11,4.11,0,0,0,.38.25C48,21.56,48.17,21.65,48.21,21.72Zm-7.65.05.22.52.1.14a2.11,2.11,0,0,1-1.72,0l-.65,0a.68.68,0,0,0-.34.58l0,.19a5.6,5.6,0,0,1-2-.48,3.51,3.51,0,0,1,.87-.91l0,0a9.36,9.36,0,0,1,1.2-.51c.88-.29,2.05-.82,2-1s-1.3,0-2.19.34c-.71.23-1.77.64-2.25.83.26-.84.74-1.85,1.12-1.91a.5.5,0,0,0,.45.31l.66-.48c.88-.84,1.19-1,1.29-.9l.09.11.34.35c.26.11.49,0,.78-.24s.56-.37.69-.32a.37.37,0,0,1,.25.27l.3.39h.73c.29-.06,1-.21,1.06,0,.2.49,0,.67-.56.94-.26.13-.53.27-.53.58l.13.46.06.29a.4.4,0,0,1-.33.25.32.32,0,0,0-.18,0,3.68,3.68,0,0,1-.75-.05l-.67,0c-.12,0-.14,0-.21.05S40.51,21.66,40.55,21.77Zm-4.88,4.61c-.33.36-.64.73-.91,1.07,0-.11,0-.2,0-.31a8.51,8.51,0,0,1,.36-2.47,9.45,9.45,0,0,1,.64-1.37,3.94,3.94,0,0,0,.89.35c0,.23-.11.28-.31.37l-.65.47A1.69,1.69,0,0,0,35.68,26.38Zm-1.55-6.23a10.39,10.39,0,0,1,.27-1.08c.19-.64,1.47-2.84,1.16-3s-1.52,2-1.74,2.75l-.19.63a4.38,4.38,0,0,1-.52-1.73.81.81,0,0,1,.16-.54.32.32,0,0,1,.28-.12l.28-.06a.33.33,0,0,0,.2-.31,1.3,1.3,0,0,0-.13-.45,4.13,4.13,0,0,1-.37-1.41,1,1,0,0,1,.08-.41.74.74,0,0,1,.46-.39l.13.08c.25.17.46.18.62,0l.15-.45c0-.34.2-1.39.64-1.39l.19.07a.48.48,0,0,0,.48.06l.18-.14c.74-.66.94-.6,1-.59s.16.51.17.72,0,.6.28.74l.51.12.26,0c.27.64-.24,1.18-.79,1.6-.14.11-.32.25-.26.49l.31.32.21.15c.09.33-.88.85-1.2,1l-.52.45c-.09.08-.15,0-.13.17s.08.07.19.13l.42.22.15,0C37.19,18.69,35.06,19.79,34.13,20.15Zm1.25.22a9.55,9.55,0,0,0-.45,1.4l-.44.22-.21.1V22a6,6,0,0,0-.13-1.12A11.35,11.35,0,0,0,35.38,20.37Zm-2-.34a.34.34,0,0,1,.07-.07l0,0,0,.17Zm.4,1h0s0,.07,0,.07ZM33,19.91a1.89,1.89,0,0,0-.49,0h0a3.77,3.77,0,0,0-.83-2.06c-.47-.39-1,0-1.37.2-.3-.63-.92-1.51-1.61-1.68l-.12-.1a1.09,1.09,0,0,1-.52-1c0-.21.26-.32.48-.41s.35-.46.32-.85c-.07-.86,0-1.42.45-1.53s1.1.46,1.57,1.09l.53.51c.33.09.55-.16.7-.35s.27-.27.33-.25a1,1,0,0,1,.46.69,1.76,1.76,0,0,0-.12.64,4.29,4.29,0,0,0,.39,1.56,1,1,0,0,0-.47.31,1.5,1.5,0,0,0-.34,1A5.16,5.16,0,0,0,33,19.91Zm-.93,4.45A7.85,7.85,0,0,1,32.27,26c0,.18,0,.34,0,.48a13.51,13.51,0,0,1-.48,2.16l-1.17-2a5.17,5.17,0,0,1-.74-2.46l0,0a3,3,0,0,0,2,.18Zm.43-1.6a2.63,2.63,0,0,1-.48-.49,5.27,5.27,0,0,0-.91-.87c-.83-.62-1.94-1.24-2-1s.88.87,1.59,1.49a4.63,4.63,0,0,1,1,1.35l.05.12c.06.11.09.23.14.35l-.09,0a2.27,2.27,0,0,1-1.63-.14l-.29-.17a3.81,3.81,0,0,0,0-.51c0-.11,0-.14,0-.21s-.11,0-.21,0l-.67.14c-.35.15-.95.41-1.27.26,0,0-.17-.08-.26-.33-.19-.54,0-.71.15-.87a.59.59,0,0,0,.24-.53c-.05-.32-.37-.38-.75-.45-.68-.12-1.08-.25-1.08-.58s.29-.5.48-.64a.36.36,0,0,0,.08-.51s-.6-.84,0-1.25.84-.09.92,0a.36.36,0,0,0,.64-.22s0-.5.36-.58,1.09.84,1.33,1.55a.46.46,0,0,0,.25.26c.23.08.41,0,.64-.21s.44-.3.54-.27a3.7,3.7,0,0,1,.6,1.78.61.61,0,0,0,.16.37.77.77,0,0,0,.66.08l.31,0A14,14,0,0,1,32.54,22.76Zm-5.78.07v.27c0,.46-.72,1-1,1.19a1.67,1.67,0,0,0-.44-.29,14.05,14.05,0,0,1-.43-1.84c-.27-1.65-.34-2.25-.55-2.18s-.31.59-.12,2.18a9.82,9.82,0,0,0,.18,1,1,1,0,0,0-.18-.14L23.64,23s-.06.05-.1.07a3.26,3.26,0,0,0-.8-1.73.36.36,0,0,0,0-.15.84.84,0,0,1,0-.44,7,7,0,0,0,.47-.57c.06-.25-.12-.41-.31-.61s-.63-.66-.52-1c0-.05.06-.08.22-.14l.31-.17c.17-.15.16-.36.14-.66,0-.65,0-1.3.58-1.56h.16a2.4,2.4,0,0,1,.79,1.19.37.37,0,0,0,.11.16.53.53,0,0,0,.59,0c.32-.14.58-.21.83,0a1.25,1.25,0,0,0-.46,1,2,2,0,0,0,.26.91,1.49,1.49,0,0,0-.54,1c0,1,1,1.17,1.61,1.28a1.17,1.17,0,0,0-.25.74A1.93,1.93,0,0,0,26.76,22.82Zm-.39,2.54.08,0c.72.21,2.22.64,2.71,3.46a15.59,15.59,0,0,1,.28,2.61,3.49,3.49,0,0,1-.06.72c-.72-.54-2.73-2.35-2.73-4.59,0,0,0-.28,0-.36A5.42,5.42,0,0,0,26.36,25.37ZM22,21c-.15.06-.25.22-.36.36a1.88,1.88,0,0,0-1.27-1.13c-.44-.1-.66.29-.79.56A2.08,2.08,0,0,0,18,20.35a1,1,0,0,0-.32.15,2.34,2.34,0,0,0-1.41-.14c0-.1,0-.19,0-.26s-.38-.43-.38-.43c-.37-.24-.67-.47-.58-.87s.33-.42.66-.5h0a.35.35,0,0,0,.3-.07l.61-.28.12-.32c.07-.24.11-.34.2-.37a2.75,2.75,0,0,0,1,1.12,1.4,1.4,0,0,0,.86,1.14,3.84,3.84,0,0,0,2.71-.18,3.28,3.28,0,0,0,.56.7h0l-.26.24a1,1,0,0,0-.15.58S21.95,21,22,21Zm-7.18,2-.11-.39-.06-.13c-.1-.21-.17-.38-.05-.57s.33-.21.58-.2l.27,0,.24-.16a1.63,1.63,0,0,1,1.56-.41,1.34,1.34,0,0,0-.13.52,1.45,1.45,0,0,0,.46,1l-1.34,2.23a2.85,2.85,0,0,1-1.1-1Zm4.32-5.43c-.26.27-.39.28-.41.29l0,0a2.41,2.41,0,0,1-1.13-2.14v0l-.1-.46,0-.12s.17,0,.17,0l.33,0,.3-.06a4,4,0,0,1,2.25.09A6.09,6.09,0,0,1,19.1,17.56Zm6-.83h0c.09,0,.06.14.09.24Zm-.87-6.36a1.33,1.33,0,0,1,0-.52c.15-.06.43.19.55.29s.05.07.11.09l.4.1a2,2,0,0,1,1.84,1.27,9.13,9.13,0,0,0-1.67.71,11,11,0,0,0-1.21.78,1.89,1.89,0,0,1-.09-2l.11-.26Zm.06,3.86,0,0Zm9.87-4.8.24-.13c.15-.1.38-.25.55-.2s.23.18.28.37l.06.19a3.16,3.16,0,0,1,.31,1.93l0,0a11.34,11.34,0,0,0-3-.72A2.76,2.76,0,0,1,34.18,9.42Zm-2,.65h0L32.08,10Zm7.15,3.07a2,2,0,0,0,.85-1,1.08,1.08,0,0,0,.06-.34A1,1,0,0,0,40,11.3c.18-.09.34-.18.5-.27a2.52,2.52,0,0,1,.49.7,2.61,2.61,0,0,0,.37.35,1.2,1.2,0,0,0,.88-.27c.54-.31.95-.51,1.3-.23s.35.46.34.58a3,3,0,0,0-1,1.2,3.13,3.13,0,0,0-2,.41,2.12,2.12,0,0,0-1.85,1.06,2.41,2.41,0,0,0-.29.85l-.32-.34a2.27,2.27,0,0,0,1-1.62A1.69,1.69,0,0,0,39.29,13.15ZM44,14.3l-.09.32v.21c0,.09,0,.21,0,.35a2.21,2.21,0,0,1-.83,1.77,3.23,3.23,0,0,1-1.59-1.11l-.27-.6a2.62,2.62,0,0,1-.1-.81,2.56,2.56,0,0,1,2.11-.27c.05,0,.06,0,.11,0l.49-.1.25-.08S44,14.3,44,14.3Zm-3.57-.11a.87.87,0,0,1,0-.09s0,.06,0,.09Zm-.79,1v0a1.4,1.4,0,0,1,.52-.5Zm.21,2.25a1.41,1.41,0,0,1-.11-.13,2.14,2.14,0,0,1-.28-.85Zm-2.16.33a.63.63,0,0,0-.26-.37,3,3,0,0,0,1.27-1.1,2.93,2.93,0,0,0,.41,1.37,3.57,3.57,0,0,0-1.65,1.09l-.06.05.07-.08a1.34,1.34,0,0,0,.25-.74A1.1,1.1,0,0,0,37.74,17.81Zm5.44,2.67c0,.07,0,.1,0,.12h0Zm.06.16,0,0,.09,0h0l-.08.17ZM50.83,15l0,.59c.19.46.7.31,1.07.2.64-.19.93-.21,1.08.13.32.71,0,1.06-.78,1.44l-.42.34a.87.87,0,0,0,.2.81c.08.12.22.33.18.4-.19.36-1.08.17-1.68,0s-.93-.2-1.18,0a.74.74,0,0,0-.27.71v.2c-.08.28-.48.29-1.09.22-.28,0-.55-.05-.69.15A4.94,4.94,0,0,0,45,20a.49.49,0,0,0-.09-.14,1.22,1.22,0,0,0-.59-.24,1.05,1.05,0,0,0,.07-.37,1.39,1.39,0,0,0,0-.18c1,0,2.95.11,3.44-1.05a.85.85,0,0,0,.07-.33,1.36,1.36,0,0,0-.22-.68c1,0,2.55,0,2.62-1.06,0,0,0-.09,0-.13a1.15,1.15,0,0,0-.64-1.08l.27-.18.28-.19c.45,0,.6.15.65.2S50.85,14.81,50.83,15Zm-2.06-2.47c.31-.14,1-.47,1.42-.32a.39.39,0,0,1,.22.24c.2.49,0,.83-.52,1.19a.36.36,0,0,0-.14.11l-.29.2c-.38.25-.7.47-.81.77-.05.15-.11.2,0,.29l.35.25c.31.11.52.21.49.63,0,.16-.3.42-2.12.39-.45,0-.65,0-.75.24s0,.37.16.56.35.5.29.65c-.31.74-2.22.64-2.85.61H44a1,1,0,0,0-.49-.21,1.35,1.35,0,0,0,.14-.69,3,3,0,0,0,.64-.75h0c.07-.05.31-.2.55-.35,1.08-.66,2.17-1.88,2-2a9.31,9.31,0,0,0-2.14,1.24,3.87,3.87,0,0,0,0-.85.7.7,0,0,1,0-.22,1,1,0,0,0-.08-1.07.81.81,0,0,0-.94-.09c.19-.29.44-.61.69-.67s.41,0,.65.23l.47.27c.35.1.59-.2.86-.53.42-.51.81-.93,1.3-.84.13,0,.19.14.27.38s.13.4.39.44Zm-2-4.46-.07,0Zm-2.83.25-.06,0ZM41.81,9.64H42l.31-.31a2.66,2.66,0,0,1,.79-.81,2.42,2.42,0,0,0,.29.25l.56.35.72-.41C45,8.43,45.49,8,45.75,8a.6.6,0,0,1,.45.4l.34.38.58-.07c.54-.18,1-.31,1.38.09a.32.32,0,0,1,.09.29c-.07.33-.62.72-.88.86a.36.36,0,0,0-.15.49,1.81,1.81,0,0,1,.2.67c-.94-.16-1.59.62-2,1.1l-.21.23-.12-.08a1.6,1.6,0,0,0-.86-.4,1.36,1.36,0,0,0-.42-.8c.15-.1.32-.22.53-.35.63-.38,1.33-.84,1.22-1s-.91.17-1.59.46a3.62,3.62,0,0,0-.77.46,2.16,2.16,0,0,0-1.68.4l-.29.15a3.52,3.52,0,0,0-.48-.72A1.54,1.54,0,0,0,41.81,9.64Zm-.64-.94.07-.06h0A.21.21,0,0,0,41.17,8.7ZM38.9,7.59l.66-.46c.29-.31.73-.79,1.15-.8a.89.89,0,0,1,.63.32.58.58,0,0,1,.21.41c0,.3-.39.65-.65.88l-.43.62a.67.67,0,0,0,.36.55c.18.12.27.19.25.45s-.21.42-.66.72a.35.35,0,0,0-.13.08,6.68,6.68,0,0,1-.84.43.56.56,0,0,0-.28.29.52.52,0,0,0,.14.46c.12.15.18.26.13.43s-.5.55-.7.66l-.32,0h-.1l0-.18c0-.44-.08-1-.55-1.31a.85.85,0,0,0-.67,0c.15-.19.32-.4.5-.61.56-.63,1.19-1.25,1.07-1.4s-1,.34-1.62,1a6.72,6.72,0,0,0-.67.78A3.7,3.7,0,0,0,36,9.41a.89.89,0,0,1,0-.12,1.4,1.4,0,0,0-.26-.54.54.54,0,0,1,.62-.14l.21,0c.3,0,.39-.26.52-.62s.43-1.21.9-1.39l.19,0c.07,0,.15.25.19.37S38.52,7.59,38.9,7.59Zm-4-5.45.44.29c.31.07.5-.19.73-.49.36-.48.7-.88,1.15-.77s.43.48.35,1.15c0,.28-.06.5.12.65l.37.14a.87.87,0,0,1,.73.51c.19.34-.57,1-1,1.29a.36.36,0,0,0,.17.67.15.15,0,0,1,.15.08.57.57,0,0,1,0,.3h-.45c-.78.29-1.12,1.25-1.32,1.82l0,.09a1.21,1.21,0,0,0-.78.06,3.21,3.21,0,0,0,.35-1.23.83.83,0,0,0-.05-.31.88.88,0,0,0-.72-.55,2.75,2.75,0,0,0,.68-1.67A2,2,0,0,0,35.44,3a.7.7,0,0,0-.85-.27,2.43,2.43,0,0,0,0-.32,3.17,3.17,0,0,0-.06-.56A1.07,1.07,0,0,1,34.91,2.14Zm-.38,1s0,0,0,0a.68.68,0,0,1-.05.23C34.52,3.35,34.51,3.23,34.53,3.16ZM30.32,6.23a1,1,0,0,1,.78-.29.48.48,0,0,0,.35-.21c.14-.25,0-.51-.24-1s-.73-1.39-.37-1.6c.12-.07.26,0,.47,0l.71,0c.21-.12.29-.37.42-.79s.39-1.22.69-1.18a.75.75,0,0,1,.58.37,2.22,2.22,0,0,1,.1,1.6.43.43,0,0,0,.1.44.47.47,0,0,0,.57,0,1,1,0,0,1,.36-.14c.54.83.06,1.61-.48,2.27-.17.2-.31.37-.2.61a.54.54,0,0,0,.55.24c.27,0,.42,0,.46.13a4,4,0,0,1-.73,1.78,2.66,2.66,0,0,0-.42.22,4.72,4.72,0,0,0-1.37.82,20.43,20.43,0,0,0,.5-2.59c.11-1,.12-1.74-.16-1.71a7.38,7.38,0,0,0-.47,1.89c-.21,1-.49,2-.56,2.26h-.24l-.33,0h0a3.57,3.57,0,0,0,.41-1.47,1.61,1.61,0,0,0-.77-1.4.7.7,0,0,0-.81,0A.51.51,0,0,1,30.32,6.23Zm-1,.91.45.41c.26.06.43-.13.58-.29L30.64,7c.66.45.53,1.08.11,2l-.15.53c.1.52.71.54,1.11.54l.41,0a2.7,2.7,0,0,0-.34.78,1.3,1.3,0,0,0-.72.42,1.59,1.59,0,0,0-.31,1,2,2,0,0,0-1-.52c-.07-.22-.17-.57-.27-1-.21-.88-.42-1.93-.66-1.87s-.13,1,0,1.9a8.89,8.89,0,0,0,.2,1,1.19,1.19,0,0,0-.52.32,1.57,1.57,0,0,0-.29-.52.69.69,0,0,0-.4-.22,4.27,4.27,0,0,0-.35-.62.52.52,0,0,0,.22-.32c0-.19-.07-.31-.3-.59-.58-.67-.83-1.1-.75-1.28s.13-.17.34-.14a.64.64,0,0,0,.59-.13c.17-.17.15-.41.11-.81-.06-.62-.1-1.3.27-1.39S29,6.76,29.32,7.15ZM27,7.91h0V8A.55.55,0,0,0,27,7.91ZM24.2,2.59l0,.11a.66.66,0,0,1,0-.11Zm-.38.8c0-.17.14-.22.5-.25a.67.67,0,0,0,.57-.23c.14-.21.06-.41-.1-.81S24.26.75,24.65.57s1.18.64,1.48,1l.37.36c.12,0,.36.08.56-.27.07-.13.11-.19.42-.1s.44,1.15.36,1.85a.36.36,0,0,0,.63.28.81.81,0,0,1,.33-.24,6.74,6.74,0,0,1-.06,2.14,1.28,1.28,0,0,0-.93-.12,1,1,0,0,0-.51.34,1.16,1.16,0,0,0-1-.08c0-.79-.17-2.18-1.25-2.34A1.06,1.06,0,0,0,24,4,.78.78,0,0,1,23.82,3.39ZM20.9,7.3c0-.24.24-.35.52-.46s.36-.15.41-.35l-.16-.56c-.4-.73-.74-1.52-.26-1.86.64-.45,1.18-.09,1.89.69.25.27.39.43.63.42s.43-.28.58-.55.3-.54.44-.52c.59.09.63,1.39.65,1.88,0,.34,0,.54.26.64a.47.47,0,0,0,.47-.11.52.52,0,0,1,.65,0A2.92,2.92,0,0,0,27,7c0,.25,0,.49,0,.68v.14a.89.89,0,0,0-1,.56.86.86,0,0,0-.08.36,2.13,2.13,0,0,0,.52,1.17,2.51,2.51,0,0,0-.69-.22,6.33,6.33,0,0,0-.6-1.38C24.88,7.79,24,6.8,23.77,7.05s.44,1.05.67,1.43a5.86,5.86,0,0,1,.43.82,1,1,0,0,0-.94-.11c-.53.23-.47.83-.4,1.21-.9-.13-1.05-.26-1.05-.32s.1-.19.26-.33l.43-.68c0-.4-.39-.52-.86-.66C21.5,8.18,20.83,7.94,20.9,7.3ZM19.13,9.75c.55-.6,1.17-.27,1.87.17l.63.28.14,0c.08.61.82.81,1.57.92a2.77,2.77,0,0,0,.36,2.46h0a.73.73,0,0,0-.15.67,2.16,2.16,0,0,0,1.3,1.3,3.29,3.29,0,0,0,2.26.13l.14,0,.07-.1.08,0a1.7,1.7,0,0,0,.5,1,1.26,1.26,0,0,0-.36.5,1.28,1.28,0,0,0-.81-.07,1.27,1.27,0,0,0-1.64-.39A2.57,2.57,0,0,0,24,15.35h-.74a1.75,1.75,0,0,0-.3.17,2.09,2.09,0,0,0-1.3-1.22l-.14,0a1.4,1.4,0,0,0,0-.63c-.11-.41-.56-.44-1-.46-.77,0-1-.14-1-.59l.14-.4.19-.65-.39-.66C19,10.34,18.86,10,19.13,9.75ZM18.71,13V13S18.71,13,18.71,13Zm-6.47-.28c0-.13.29-.25.47-.33l.41-.26c.16-.18.12-.41,0-.76-.16-.79-.17-1.29.24-1.46.19-.08.37.09.68.47l.55.46c.41.1.63-.31.78-.61a1.48,1.48,0,0,1,.29-.43c.28,0,.42.93.48,1.32s.12.78.41.87.63-.19.78-.37.2-.23.25-.21c.25.08.3.75.32,1.15s0,.77.27.94a.76.76,0,0,0,1-.07,2.16,2.16,0,0,0,1.37.44l.32,0v0a1.17,1.17,0,0,1-.11.46A4.61,4.61,0,0,0,18,14.32l-.21,0h-.26l-.74.28a.51.51,0,0,0,0,.06,6.62,6.62,0,0,1-1.2-1.12c-.59-.73-.86-1.59-1.07-1.51-.44.17.13,1.33.43,1.76a7.24,7.24,0,0,0,1.85,1.74v0a3.7,3.7,0,0,0,.12,1,1.16,1.16,0,0,0-.65.86v0l-.16,0h0a2.47,2.47,0,0,1-.21-.65,1.4,1.4,0,0,0-.38-.85c-.31-.23-.71-.08-1.1.07l-.41.12c-.1-.09-.22-.16-.22-.22a.09.09,0,0,1,0-.06l-.5-.64,0,0a1.74,1.74,0,0,1,.67-.4.44.44,0,0,0,.39-.28c.08-.3-.17-.42-.45-.55C12.38,13.38,12.16,13,12.24,12.76Zm-.34,6.88c-.51.21-.74.27-.86.13L11,19.55a1,1,0,0,1,.38-.51.36.36,0,0,0-.15-.65c-.33-.05-1.25-.3-1.51-.79a.77.77,0,0,1,0-.71c.2-.42.48-.42,1-.26h.51c.25-.14.22-.41.19-.63,0-.41,0-.55.13-.6a1.35,1.35,0,0,1,1.23.44l.54.7.22.29c.29.25.69.1,1.08,0l.46-.13s0,0,0,0a2.21,2.21,0,0,0,.08.37,3.8,3.8,0,0,0,.21.69,1.27,1.27,0,0,0-.77.89,1.39,1.39,0,0,0,0,.32,1.67,1.67,0,0,0,.93,1.32l.08.05a1.06,1.06,0,0,1,0,.2.26.26,0,0,1,0,.12,3.83,3.83,0,0,0-.37.27,1.43,1.43,0,0,0-1.25.57v0a3.86,3.86,0,0,0-.5-.46c.28-.35.57-.88.26-1.3C13.18,19.12,12.44,19.42,11.9,19.64Zm-1,5.51-.52.24c-.47.32-.84.52-1.27.13-.13-.11-.17-.18.13-.56.13-.17.36-.46.14-.73L8.84,24c-.79-.21-1.23-.44-1.14-1,0-.24.14-.3.17-.32.2-.13.62,0,.93,0h.73c.33-.18.27-.56.22-.85-.09-.53,0-.55.12-.58.41-.09,1,.38,1.29.67s.45.39.68.34.36-.34.4-.51.11-.35.26-.38.87.48,1.34,1.17l0,0,.07.15c0,.07.12.38.12.38l.22.59a5.89,5.89,0,0,0-1-.25c-.75-.12-3,0-3,.3s2,.28,2.62.37l.45.08a1,1,0,0,0-.33.87c0,.1,0,.2,0,.3s0,.1,0,.19L13,25.56a1.71,1.71,0,0,0-1.76-.37A1,1,0,0,0,10.89,25.15Zm.81,4h0Zm3.55-.46a1.69,1.69,0,0,0-.18.32l-.1-.06c-.11-.07-.14-.2-.25-.15l-.49.24c-.34.28-1.23,1-1.65.64a.73.73,0,0,1-.19-.53l-.21-.58-.71-.14c-.65,0-1,0-1.11-.41a.45.45,0,0,1,0-.32c.08-.15.39-.24.62-.3l.61-.33,0-.8-.05-.41c.25-.15.59.06,1,.34s.66.44,1,.22.27-.6.25-1a1.7,1.7,0,0,1,0-.56,1.14,1.14,0,0,1,1.13,0H15a4.12,4.12,0,0,0,.84.62,1.26,1.26,0,0,0,.41,1.25,1.87,1.87,0,0,0,.63.39.78.78,0,0,0-.35.49.6.6,0,0,0,0,.08.65.65,0,0,0,.1.29A1.55,1.55,0,0,0,15.25,28.65Zm5.77,2,0-.06c-.09-.19-.2-.43-.46-.5a.51.51,0,0,0-.45.11,2.1,2.1,0,0,0-.58,1c-.22.58-.42,1.14-1.17,1.29-.31.06-.31,0-.38-.23s-.18-.69-.73-.65l-.82.31c-.31.15-1.12.54-1.3.44-.31-.46,0-.88.59-1.45l.32-.35a.63.63,0,0,0-.15-.72c-.18-.23-.29-.36,0-.75A1,1,0,0,1,17,28.73c.23,0,.47.08.65-.12a.38.38,0,0,0,.11-.26.75.75,0,0,0-.28-.48l-.18-.2a.43.43,0,0,0,.13-.07c.58-.31,1.42.16,1.74.33a.49.49,0,0,0,.45.09.41.41,0,0,0,.22-.23c.07-.19,0-.35-.14-.55l-.19-.43a.54.54,0,0,1,.45-.12l.44,0a1,1,0,0,0-.2.53.53.53,0,0,0,.07.27,1.19,1.19,0,0,0,.54.49,5.8,5.8,0,0,0-2,1.12c-.39.29-1.18,1-1.14,1.17s2.27-1.11,3.21-1.49A8.34,8.34,0,0,1,22,28.47a.35.35,0,0,0-.05.1A5.63,5.63,0,0,1,21,30.64Zm-.13-3.46c.05,0,.19-.23.19-.23l.23-.6c-.06-.34-.39-.35-.72-.35l-.51,0H20a1.23,1.23,0,0,1-1.17-.69c0,.1.24-.15.24-.15.17-.16.5-.47.24-.79l-.54-.21c-.66-.09-.87-.21-.87-.52,0-.06.16-.15.27-.21s.46-.24.46-.55l-.35-.53c-.45-.4-.61-.65-.38-1.05a.39.39,0,0,1,.26-.22c.36-.08.92.32,1.13.47l.21.13c.37.15.56-.24.65-.43l.12-.21a1.34,1.34,0,0,1,.91,1.25.36.36,0,0,0,.71.08,1.52,1.52,0,0,1,.34-.64,3,3,0,0,1,.66,2.05.36.36,0,0,0,.68.19.76.76,0,0,1,.28-.31c.14.09.46.65.53,2.11l0,.19A2.38,2.38,0,0,1,23,25.41h0l-.09-.06c-.39-.24-.86-.56-1.32-.92,0,0-1.16-.84-1.32-.59s.93,1.2.93,1.2c.46.36.94.68,1.33.92l.1.07a3.39,3.39,0,0,1,.81,1.08C22.09,27.55,21.14,27.58,20.89,27.18ZM19.69,43.84l0,.05,0,0Zm.55,3.27A2.2,2.2,0,0,1,19,46.79a.37.37,0,0,0-.49.05,1.44,1.44,0,0,1-1.06.31,1.93,1.93,0,0,1-1.72-.82,2,2,0,0,1,0-1.8,1.73,1.73,0,0,1,1.69-.84,2.57,2.57,0,0,1,1.89.82l1.53,2.24c.07.1.19.14.27.23A2.51,2.51,0,0,1,20.24,47.11Zm10.62,0a1.84,1.84,0,0,1-1.09-.32.37.37,0,0,0-.51.06,1.24,1.24,0,0,1-1,.3,2,2,0,0,1-1.58-.82l-1.54-2.25a2.6,2.6,0,0,0-.23-.25,2.21,2.21,0,0,1,.74-.11,1.87,1.87,0,0,1,1.1.32A.38.38,0,0,0,27.3,44a1.25,1.25,0,0,1,1-.3,2,2,0,0,1,1.58.82l1.53,2.24a2.69,2.69,0,0,0,.24.26A2.19,2.19,0,0,1,30.86,47.11ZM27.61,43a1.87,1.87,0,0,0-.63.28A2.66,2.66,0,0,0,25.69,43h-.1a3.41,3.41,0,0,1,2-.3C27.6,42.82,27.6,42.93,27.61,43Zm2.62.79.07.11-.1-.11Zm2-.51A2.65,2.65,0,0,0,30.94,43a3.49,3.49,0,0,0-.44,0,1.29,1.29,0,0,1,1-.83.66.66,0,0,1,.5.19,1.48,1.48,0,0,1,.32.85Zm9.12,3.79a1.87,1.87,0,0,1-1.1-.32.37.37,0,0,0-.51.06,1.24,1.24,0,0,1-1,.3,2,2,0,0,1-1.58-.82l-1.54-2.25a2.52,2.52,0,0,0-.21-.23,2.2,2.2,0,0,1,.79-.13,1.87,1.87,0,0,1,1.1.32.38.38,0,0,0,.51-.06,1.25,1.25,0,0,1,1-.3,2,2,0,0,1,1.58.82l1.54,2.25a2.18,2.18,0,0,0,.23.22A2.21,2.21,0,0,1,41.36,47.11ZM34.93,30.29c-1.9,2.9-1,7.33-.5,8.14l.06.1c.46.81,1.08,1.92,3.66,3l.3.13A8.33,8.33,0,0,1,41.14,43a2.54,2.54,0,0,0-1,.32A2.63,2.63,0,0,0,38.82,43a2.52,2.52,0,0,0-.69.09l-.19-.43a3.15,3.15,0,0,0-1.84-1.42,3.75,3.75,0,0,1-2.46-2.3A10,10,0,0,1,33.13,36a11.69,11.69,0,0,0-.45-2.94,10.2,10.2,0,0,0-.27,3A10.69,10.69,0,0,0,33,39.16a4.46,4.46,0,0,0,2.85,2.71c.72.3,1.29.54,1.55,1.24l0,.12A2.66,2.66,0,0,0,36.26,43a2.57,2.57,0,0,0-1.41.35A2.66,2.66,0,0,0,33.51,43a2.83,2.83,0,0,0-.44,0,2,2,0,0,0-.5-1.11,1.39,1.39,0,0,0-1-.41c-.82,0-1.52.64-1.91,1.76a.37.37,0,0,0,0,.07l-.06,0A2.67,2.67,0,0,0,28.33,43a3.78,3.78,0,0,1,0-.47l0,0a.36.36,0,0,0,0-.15,2.32,2.32,0,0,1,.23-.81c.12-.23.27-.49.43-.77.85-1.45.9-2.83.71-2.84a17.63,17.63,0,0,0-1.33,2.47c-.16.28-.32.55-.45.8a2.89,2.89,0,0,0-.26.79c-.8-.1-2.56-.13-3.32,1.29a.35.35,0,0,0,0,0h0A2.66,2.66,0,0,0,23,43a2.09,2.09,0,0,0-1.27.36l-.11-.05a33.92,33.92,0,0,1,3.55-2l.57-.29a6,6,0,0,0,3-4.78c0-.2,0-.28-1.22-2.23-.55-.88-1.24-2-1.35-2.27-.23-.6-1.74-3-3.53-3.67a9.14,9.14,0,0,0,1.1-.31.62.62,0,0,0,.42-.46.64.64,0,0,0,0-.13A1.28,1.28,0,0,0,24,26.6a1,1,0,0,0,.69,0,.84.84,0,0,0,.39-.85A8.83,8.83,0,0,0,25,24.64h0c.2,0,1,.62.93,2.82C25.84,30.7,29.2,33,29.42,33a.51.51,0,0,0,.4-.11,2.14,2.14,0,0,0,.34-1.45,17.06,17.06,0,0,0-.29-2.74c-.57-3.27-2.5-3.82-3.22-4l-.18-.06a3.09,3.09,0,0,0,.87-1,1.06,1.06,0,0,0,.12.09,2.22,2.22,0,0,0,1.7-.2v.06A6.17,6.17,0,0,0,30,27l1,1.73.53.88a.36.36,0,0,0,.41.15c.57-.16,1-3.27,1-3.3s0-.32,0-.5a7.53,7.53,0,0,0-.47-2.62h0a.35.35,0,0,0,.17.12.36.36,0,0,0,.45-.25c.17-.61.29-1.08.37-1.47,0,.11,0,.22,0,.3l.14.76c.22.26.46.14,1.12-.18l.8-.37a8.83,8.83,0,0,0-1.14,2.14,9,9,0,0,0-.4,2.69,5.88,5.88,0,0,1-.18,1.53.36.36,0,0,0,.63.34,24,24,0,0,1,2.13-2.54,5.3,5.3,0,0,0-.35.93.38.38,0,0,0,0,.06.36.36,0,0,0,.54.32,2.71,2.71,0,0,1,1.41-.21h0v0A6.82,6.82,0,0,0,34.93,30.29Zm2.3-3.4c.17-.39.4-.88.61-1.3a1.8,1.8,0,0,1,.77-.55c.12-.06,1.07-.62.94-.86s-1.11.14-1.25.21c-.47.23-1,.56-1.06.59a6.23,6.23,0,0,0-1,.85.89.89,0,0,1,.07-.88l.39-.27a1.07,1.07,0,0,0,.71-.87,2.29,2.29,0,0,0,1.07,0,.82.82,0,0,0,.41-.68l.09,0a2.49,2.49,0,0,0,2.4-.26.62.62,0,0,0,.24-.47c0-.07-.08-.15-.1-.23a3.88,3.88,0,0,0,.66,0,.46.46,0,0,1,0,.17s0,0,0,.06-.17.27-.38.43l-.41.44a.52.52,0,0,0,0,.19.69.69,0,0,0,.22.45.47.47,0,0,1,.17.35.69.69,0,0,1,0,.07c0,.42-.48.55-1.27.64l-.75.24a.43.43,0,0,0-.13.3.82.82,0,0,0,.25.5l.15.21-.11.12a3.75,3.75,0,0,1-1,.28l-.5.14A3.82,3.82,0,0,0,37.24,26.89Zm8.86,4.65c-.19.28-.45.25-.91.1l-.32-.07a.64.64,0,0,0-.49.3.6.6,0,0,1-.48.29c-.28,0-.65-.37-.87-.6l-.48-.35a.49.49,0,0,0-.51.33c-.08.17-.13.27-.46.22s-.71-.92-.88-1.34-.27-.66-.49-.74a.55.55,0,0,0-.61.21,5.29,5.29,0,0,1-.6-2.13,8.85,8.85,0,0,1,1.85.9c.4.29,1.14.91,1.34.74s-.46-1-.92-1.32a10,10,0,0,0-1.43-.87,3.88,3.88,0,0,1,2.42-.31,1,1,0,0,0,0,.15l0,.37c.05.36.39.4,1.15.49a4.66,4.66,0,0,1,1.21.23h0a1,1,0,0,1-.11.26,1,1,0,0,0-.14.42.48.48,0,0,0,0,.19c.1.24.37.32.78.43a2.46,2.46,0,0,1,.74.29s-.12.11-.12.11a.77.77,0,0,0-.28.52.54.54,0,0,0,0,.12l.37.46c.25.2.34.3.34.4A.35.35,0,0,1,46.1,31.54Zm-1.18-2.91.08,0h0ZM48.4,28c-.06.15-.2.18-.62.13l-.65.1-.21.52c0,.17,0,.2-.08.23a1.07,1.07,0,0,1-.68,0l-.27,0a6,6,0,0,0-.58-.19l-.22-.07a1.21,1.21,0,0,0,.17-.55.74.74,0,0,0-.16-.46c-.24-.31-.79-.39-1.68-.49l-.47-.07a1.19,1.19,0,0,0,0-.23.67.67,0,0,0-.26-.55,2.82,2.82,0,0,0-2-.11l-.2-.45h.09A2.9,2.9,0,0,0,42,25.28a3.9,3.9,0,0,0,3.14.27l.15-.08a1,1,0,0,0,.45.38l.83,0c.25-.05.76-.16.88-.06.3.24.27.32.16.54l-.1.63c.06.21.25.29.45.38C48.45,27.49,48.56,27.61,48.4,28Zm1.06-.89.18.07C49.57,27.19,49.54,27.13,49.46,27.1ZM52,26.2h0v-.09a.37.37,0,0,0,0,.06Zm1.35-1.05a.61.61,0,0,1-.22.44c-.25.17-.73.08-1,0l-.61,0c-.2.13-.23.37-.25.61s-.07.53-.2.59-.76-.17-1-.28-.59-.27-.79-.06l-.15.34a.81.81,0,0,1-.1.27,1.85,1.85,0,0,0-.71-.48l0,0a1.23,1.23,0,0,0,.14-.53,1.13,1.13,0,0,0-.51-.88,1.83,1.83,0,0,0-1.49-.08l-.45.07a1.1,1.1,0,0,1-.24-.39,4.63,4.63,0,0,0,.52-.15l.46,0c.66,0,3.17.39,3.18.06S48.41,24.1,47.4,24a2.75,2.75,0,0,0,.82-1.3l0-.11s.08,0,.11-.07.15.17.22.4a.6.6,0,0,0,.3.46c.21.09.37,0,.68-.21s1.34-.85,1.69-.49a.51.51,0,0,1,.11.66c-.13.33-.08.56.16.68l.35.08C53,24.29,53.41,24.58,53.32,25.15Z" transform="translate(0.42 0.2)"/></svg>